<?xml version="1.0" encoding="utf-8"?>
<!-- Svg Vector Icons : http://www.onlinewebfonts.com/icon -->
<!DOCTYPE svg PUBLIC "-//W3C//DTD SVG 1.1//EN" "http://www.w3.org/Graphics/SVG/1.1/DTD/svg11.dtd">
<svg version="1.1" xmlns="http://www.w3.org/2000/svg" xmlns:xlink="http://www.w3.org/1999/xlink" x="0px" y="0px" viewBox="0 0 1000 1000" enable-background="new 0 0 1000 1000" xml:space="preserve">
<metadata> Svg Vector Icons : http://www.onlinewebfonts.com/icon </metadata>
<g><g><path id="Creative_Commons" d="M504,500c0-95.5,63.6-152,143.5-152c54.9,0,102.2,20.1,129.9,70.5l-65.2,34.2c-15.2-32.6-41.3-39.6-54.4-39.6c-48.4,0-65.8,37.5-65.8,86.8c0,49.4,20.7,86.9,65.8,86.9c26.1,0,46.8-9.8,60.3-42.4l60.9,31C753,621.6,705.7,652,650.2,652C563.8,652,504,597.2,504,500z M367.2,652c55.4,0,102.7-30.4,128.8-76.5l-60.9-30.9c-13.6,32.6-34.3,42.3-60.3,42.3c-45.1,0-65.8-37.4-65.8-86.8c0-49.4,17.4-86.9,65.8-86.9c13,0,39.1,7.1,54.4,39.6l65.2-34.2c-27.7-50.5-75-70.5-129.9-70.5c-79.9,0-143.5,56.4-143.5,152C221,597.2,280.7,652,367.2,652z M153.8,845C59.7,751,10,630.2,10,500c0-128.9,51.1-252.4,145.2-347.7C246.6,59.7,364.9,10,499.3,10s255.4,49.7,349.5,143.6C941.6,246.3,990,367.1,990,500c0,134.3-48.4,253.7-139.8,343.7C753.4,939,628.4,990,499.3,990C370.3,990,247.9,939,153.8,845z M98.7,500c0,104.7,43,205.4,119.6,281.9c76.6,76.5,176.1,118.1,282.3,118.1c104.8,0,207-41.6,286.4-119.5c75.2-73.8,114.2-170.5,114.2-280.6c0-108.7-40.3-208.1-115.6-283.3C709,140.2,610.9,98.6,500.7,98.6c-110.2,0-207,40.3-282.3,116.8C141.7,293.3,98.7,393.9,98.7,500z"/></g><g></g><g></g><g></g><g></g><g></g><g></g><g></g><g></g><g></g><g></g><g></g><g></g><g></g><g></g><g></g></g>
</svg>