<?xml version="1.0" encoding="UTF-8" standalone="no"?>
<svg
   xmlns:ns="http://ns.adobe.com/SaveForWeb/1.0/"
   xmlns:a="http://ns.adobe.com/AdobeSVGViewerExtensions/3.0/"
   xmlns:dc="http://purl.org/dc/elements/1.1/"
   xmlns:cc="http://creativecommons.org/ns#"
   xmlns:rdf="http://www.w3.org/1999/02/22-rdf-syntax-ns#"
   xmlns:svg="http://www.w3.org/2000/svg"
   xmlns="http://www.w3.org/2000/svg"
   version="1.1"
   id="svg3232"
   xml:space="preserve"
   enable-background="new 0 0 256 256"
   overflow="visible"
   viewBox="0 0 256 256"
   height="48pt"
   width="48pt"><defs
     id="defs3296"><linearGradient
       y2="245.0005"
       x2="128.9995"
       y1="11"
       x1="128.9995"
       gradientUnits="userSpaceOnUse"
       id="XMLID_7_"><stop
         id="stop3239"
         style="stop-color:#494949"
         offset="0" /><stop
         id="stop3240"
         style="stop-color:#000000"
         offset="1" /></linearGradient><linearGradient
       y2="226.9471"
       x2="226.9471"
       y1="29.0532"
       x1="29.0532"
       gradientUnits="userSpaceOnUse"
       id="XMLID_8_"><stop
         id="stop3247"
         style="stop-color:#FFFFFF"
         offset="0" /><stop
         id="stop3248"
         style="stop-color:#DADADA"
         offset="1" /></linearGradient><linearGradient
       y2="216.1587"
       x2="128.0024"
       y1="39.8628"
       x1="128.0024"
       gradientUnits="userSpaceOnUse"
       id="XMLID_9_"><stop
         id="stop3256"
         style="stop-color:#003333"
         offset="0" /><stop
         id="stop3257"
         style="stop-color:#006600"
         offset="1" /></linearGradient><linearGradient
       y2="44.9092"
       x2="127.7436"
       y1="211.125"
       x1="127.7437"
       gradientUnits="userSpaceOnUse"
       id="XMLID_10_"><stop
         id="stop3263"
         style="stop-color:#009933"
         offset="0" /><stop
         id="stop3264"
         style="stop-color:#00FF00"
         offset="1" /></linearGradient><linearGradient
       y2="283.1829"
       x2="126.2256"
       y1="55.0059"
       x1="126.2256"
       gradientUnits="userSpaceOnUse"
       id="XMLID_11_"><stop
         id="stop3271"
         style="stop-color:#FFFFFF"
         offset="0" /><stop
         id="stop3272"
         style="stop-color:#00FF00"
         offset="0.382" /><stop
         id="stop3273"
         style="stop-color:#00FB02"
         offset="0.4331" /><stop
         id="stop3274"
         style="stop-color:#00EE09"
         offset="0.4874" /><stop
         id="stop3275"
         style="stop-color:#00D913"
         offset="0.5432" /><stop
         id="stop3276"
         style="stop-color:#00BB22"
         offset="0.5997" /><stop
         id="stop3277"
         style="stop-color:#009933"
         offset="0.6517" /><stop
         id="stop3278"
         style="stop-color:#006600"
         offset="0.8258" /></linearGradient><radialGradient
       gradientUnits="userSpaceOnUse"
       gradientTransform="matrix(0.826 -0.0247 -0.0247 0.738 18.1722 45.3572)"
       fy="124.4897"
       fx="100.5962"
       r="86.1955"
       cy="124.4897"
       cx="100.5962"
       id="XMLID_12_"><stop
         id="stop3288"
         style="stop-color:#FFFFFF"
         offset="0.3933" /><stop
         id="stop3289"
         style="stop-color:#00E100"
         offset="0.7303" /></radialGradient></defs>
		 <path
     transform="matrix(1.254642,0.000000,0.000000,1.254642,-32.57354,-32.16346)"
     style="font-size:12;opacity:0.2;"
     id="path3253"
     d="M108.139,43.324c-1.789,0.819-2.944,2.618-2.944,4.584l0.172,1.303c0,0,28.258,105.463,29.143,108.764     c-4.013-1.196-8.281-1.975-12.749-2.266c-8.533-0.554-16.573,0.702-22.057,3.445c0.044-0.021,0.102-0.052,0.147-0.071     c-10.88,4.466-19.922,13.87-23.036,23.96c-0.772,2.502-1.164,5.011-1.164,7.455c0,4.198,1.18,8.19,3.413,11.546     c4.728,7.788,12.795,13.416,22.696,15.813c9.539,2.31,20.407,1.526,30.602-2.206c0.067-0.026,0.146-0.056,0.146-0.056     c12.799-5.331,21.341-12.634,24.766-21.142c1.099-2.733,1.656-5.554,1.656-8.382c0-3.06-0.663-6.192-1.962-9.312     c-0.02-0.073-20.335-75.887-21.306-79.511c2.24,0.896,5.721,2.287,5.721,2.287c7.285,2.806,15.542,5.987,22.465,10.881     c7.6,5.373,12.373,12.013,14.593,20.3c0.672,2.506,3.109,4.085,5.671,3.674s4.383-2.675,4.235-5.266     c-1.615-28.262-18.805-39.433-37.003-51.26c-12.903-8.389-26.238-17.057-36.934-32.791     C113.021,43.032,110.384,42.296,108.139,43.324z"
     opacity="0.2" /><path
     transform="matrix(1.254642,0.000000,0.000000,1.254642,-32.57354,-32.16346)"
     style="font-size:12;opacity:0.2;"
     id="path3254"
     d="M106.139,42.324c-1.789,0.819-2.944,2.618-2.944,4.584l0.172,1.303c0,0,28.258,105.463,29.143,108.764     c-4.013-1.196-8.281-1.975-12.749-2.266c-8.533-0.554-16.573,0.702-22.057,3.445c0.044-0.021,0.102-0.052,0.147-0.071     c-10.88,4.466-19.922,13.87-23.036,23.96c-0.772,2.502-1.164,5.011-1.164,7.455c0,4.198,1.18,8.19,3.413,11.546     c4.728,7.788,12.795,13.416,22.696,15.813c9.539,2.31,20.407,1.526,30.602-2.206c0.067-0.026,0.146-0.056,0.146-0.056     c12.799-5.331,21.341-12.634,24.766-21.142c1.099-2.733,1.656-5.554,1.656-8.382c0-3.06-0.663-6.192-1.962-9.312     c-0.02-0.073-20.335-75.887-21.306-79.511c2.24,0.896,5.721,2.287,5.721,2.287c7.285,2.806,15.542,5.987,22.465,10.881     c7.6,5.373,12.373,12.013,14.593,20.3c0.672,2.506,3.109,4.085,5.671,3.674s4.383-2.675,4.235-5.266     c-1.615-28.262-18.805-39.433-37.003-51.259c-12.903-8.389-26.238-17.057-36.934-32.791     C111.021,42.032,108.384,41.296,106.139,42.324z"
     opacity="0.2" /><path
     transform="matrix(1.254642,0.000000,0.000000,1.254642,-32.57354,-32.16346)"
     style="font-size:12;fill:url(#XMLID_9_);"
     id="path3261"
     d="M104.139,40.324c-1.789,0.819-2.944,2.618-2.944,4.584l0.172,1.303     c0,0,28.258,105.463,29.143,108.764c-4.013-1.196-8.281-1.975-12.749-2.266c-8.533-0.554-16.573,0.702-22.057,3.445     c0.044-0.021,0.102-0.052,0.147-0.071c-10.88,4.466-19.922,13.87-23.036,23.96c-0.772,2.502-1.164,5.011-1.164,7.455     c0,4.198,1.18,8.19,3.413,11.546c4.728,7.788,12.795,13.416,22.696,15.813c9.539,2.31,20.407,1.526,30.603-2.206     c0.067-0.026,0.145-0.056,0.145-0.056c12.799-5.331,21.341-12.634,24.766-21.142c1.099-2.733,1.656-5.554,1.656-8.382     c0-3.06-0.663-6.192-1.962-9.312c-0.02-0.073-20.335-75.887-21.306-79.511c2.24,0.896,5.721,2.287,5.721,2.287     c7.285,2.806,15.542,5.987,22.465,10.881c7.6,5.373,12.373,12.013,14.593,20.3c0.672,2.505,3.109,4.084,5.671,3.673     s4.383-2.675,4.235-5.266c-1.615-28.262-18.805-39.433-37.003-51.259c-12.903-8.389-26.238-17.057-36.934-32.791     C109.021,40.032,106.384,39.296,104.139,40.324z"
     fill="url(#XMLID_9_)" /><path
     transform="matrix(1.254642,0.000000,0.000000,1.254642,-32.57354,-32.16346)"
     style="font-size:12;fill:url(#XMLID_10_);"
     id="path3268"
     d="M123.575,84.502c11.822,9.323,47.372,11.643,55.481,41.911     c-2.525-44.232-46.158-41.911-73.072-81.504l31.825,118.777c-11.178-7.004-30.468-7.838-40.105-3.02     c-15.722,6.338-26.46,23.965-18.682,35.607c8.389,13.984,28.279,18.621,47.352,11.643c16.753-6.98,27.621-18.625,21.538-32.586     L123.575,84.502z"
     fill="url(#XMLID_10_)" /><path
     transform="matrix(1.254642,0.000000,0.000000,1.254642,-32.57354,-32.16346)"
     style="font-size:12;fill:#ffffff;"
     id="path3269"
     d="M139.771,163.16c0.046,0.174,0.067,0.35,0.067,0.525c0,0.633-0.297,1.242-0.822,1.631     c-0.671,0.496-1.576,0.529-2.282,0.088c-10.991-6.887-29.518-7.227-38.122-2.924c-0.048,0.023-0.098,0.047-0.148,0.066     c-9.091,3.666-16.605,11.352-19.145,19.582c-1.053,3.412-1.667,8.441,1.391,13.018c0.019,0.027,0.036,0.057,0.053,0.084     c3.755,6.26,10.292,10.789,18.408,12.754c8.182,1.98,17.581,1.283,26.468-1.961c10.769-4.494,18.163-10.605,20.82-17.211     c0.753-1.869,1.129-3.785,1.129-5.734c0-2.273-0.512-4.592-1.535-6.938c-0.039-0.092-0.072-0.188-0.099-0.285l-24.338-90.828     c-0.046-0.175-0.069-0.351-0.069-0.525c0-0.671,0.333-1.313,0.913-1.694c0.73-0.481,1.686-0.44,2.372,0.101     c3.251,2.564,8.623,4.633,14.84,7.028c7.671,2.956,16.366,6.306,24.005,11.706c4.133,2.922,7.557,6.179,10.317,9.806     c-1.766-4.63-4.297-8.79-7.664-12.643c-6.072-6.95-14.34-12.323-23.093-18.012c-10.614-6.898-22.392-14.569-32.65-26.547     C115.031,70.833,139.771,163.16,139.771,163.16z"
     fill="#FFFFFF" /><path
     transform="matrix(1.254642,0.000000,0.000000,1.254642,-32.57354,-32.16346)"
     style="font-size:12;fill:url(#XMLID_11_);"
     id="path3286"
     d="M139.771,163.16c0.046,0.174,0.067,0.35,0.067,0.525c0,0.633-0.297,1.242-0.822,1.631     c-0.671,0.496-1.576,0.529-2.282,0.088c-10.991-6.887-29.518-7.227-38.122-2.924c-0.048,0.023-0.098,0.047-0.148,0.066     c-9.091,3.666-16.605,11.352-19.145,19.582c-1.053,3.412-1.667,8.441,1.391,13.018c0.019,0.027,0.036,0.057,0.053,0.084     c3.755,6.26,10.292,10.789,18.408,12.754c8.182,1.98,17.581,1.283,26.468-1.961c10.769-4.494,18.163-10.605,20.82-17.211     c0.753-1.869,1.129-3.785,1.129-5.734c0-2.273-0.512-4.592-1.535-6.938c-0.039-0.092-0.072-0.188-0.099-0.285l-24.338-90.828     c-0.046-0.175-0.069-0.351-0.069-0.525c0-0.671,0.333-1.313,0.913-1.694c0.73-0.481,1.686-0.44,2.372,0.101     c3.251,2.564,8.623,4.633,14.84,7.028c7.671,2.956,16.366,6.306,24.005,11.706c4.133,2.922,7.557,6.179,10.317,9.806     c-1.766-4.63-4.297-8.79-7.664-12.643c-6.072-6.95-14.34-12.323-23.093-18.012c-10.614-6.898-22.392-14.569-32.65-26.547     C115.031,70.833,139.771,163.16,139.771,163.16z"
     fill="url(#XMLID_11_)" /><path
     transform="matrix(1.254642,0.000000,0.000000,1.254642,-32.57354,-32.16346)"
     style="font-size:12;fill:url(#XMLID_12_);"
     id="path3293"
     d="M87.186,176.529c1.399,5.353,10.628,7.574,20.611,4.963c9.983-2.61,16.941-9.066,15.541-14.42     c-1.4-5.353-10.629-7.574-20.611-4.964C92.743,164.72,85.785,171.176,87.186,176.529z"
     fill="url(#XMLID_12_)" /><rect
     style="font-size:12;fill:none;"
     height="256"
     width="256"
     fill="none"
     id="_x3C_Slice_x3E_" /></svg>