<?xml version="1.0" encoding="windows-1252"?>
<!-- Generator: Adobe Illustrator 19.0.0, SVG Export Plug-In . SVG Version: 6.00 Build 0)  -->
<svg version="1.1" id="Layer_1" xmlns="http://www.w3.org/2000/svg" xmlns:xlink="http://www.w3.org/1999/xlink" x="0px" y="0px" viewBox="0 0 489.581 489.581" style="enable-background:new 0 0 489.581 489.581;" xml:space="preserve">
<g>
	<path style="fill:#71D1D1;" d="M290.688,76.497c0,9.826-3.114,18.932-8.392,26.407c19.446,12.648,31.341,34.35,31.341,57.74v7.099   c14.275-16.185,22.95-37.421,22.95-60.647c0-50.136-40.405-91.007-90.361-91.777v15.317   C270.871,31.399,290.688,51.671,290.688,76.497z"/>
	<path style="fill:#A0E0E0;" d="M207.284,102.904c-5.278-7.474-8.392-16.581-8.392-26.407c0-25.308,20.59-45.898,45.898-45.898   c0.481,0,0.958,0.021,1.436,0.036V15.319c-0.478-0.007-0.956-0.018-1.436-0.018c-50.617,0-91.797,41.179-91.797,91.795   c0,23.227,8.675,44.462,22.95,60.647v-7.099C175.943,137.254,187.838,115.553,207.284,102.904z"/>
	<path style="fill:#FDD089;" d="M230.691,120.174c-4.418-1.433-8.545-3.519-12.267-6.141c-16.777,9.512-27.181,27.323-27.181,46.611   v20.967c8.683,6.257,18.502,11.027,29.078,13.957C220.337,150.773,226.577,129.4,230.691,120.174z"/>
	<path style="fill:#FBB03B;" d="M298.338,181.611v-20.967c0-19.288-10.405-37.1-27.181-46.612   c-7.467,5.261-16.559,8.364-26.367,8.364c-4.918,0-9.656-0.781-14.099-2.222c-4.113,9.227-10.354,30.6-10.371,75.394   c7.794,2.16,15.998,3.325,24.47,3.325C264.759,198.893,283.256,192.48,298.338,181.611z"/>
	<path style="fill:#FBB03B;" d="M261.941,69.666c0,15.308-12.41,27.718-27.718,27.718c-5.674,0-10.947-1.708-15.34-4.633   c5.421,8.609,15.004,14.345,25.907,14.345c16.872,0,30.599-13.727,30.599-30.599c0-15.459-11.527-28.269-26.436-30.307   C256.753,51.095,261.941,59.772,261.941,69.666z"/>
	<path style="fill:#FDD089;" d="M234.223,97.384c15.308,0,27.718-12.41,27.718-27.718c0-9.894-5.188-18.571-12.988-23.476   c-1.362-0.186-2.75-0.291-4.163-0.291c-16.872,0-30.599,13.727-30.599,30.598c0,5.969,1.724,11.54,4.692,16.254   C223.276,95.676,228.549,97.384,234.223,97.384z M237.13,64.596c3.773,0,6.832,3.059,6.832,6.832s-3.059,6.832-6.832,6.832   s-6.832-3.059-6.832-6.832S233.357,64.596,237.13,64.596z"/>
	<path style="fill:#71D1D1;" d="M198.892,382.485c0-50.377-40.793-91.399-91.08-91.787v15.307   c24.978,0.386,45.182,20.813,45.182,45.88c0,9.826-3.114,18.932-8.392,26.407c19.446,12.647,31.341,34.35,31.341,57.74v7.098   C190.217,426.945,198.892,405.711,198.892,382.485z"/>
	<path style="fill:#A0E0E0;" d="M107.096,290.69c-50.616,0-91.796,41.179-91.796,91.796c0,23.226,8.675,44.46,22.949,60.646v-7.098   c0-23.391,11.895-45.092,31.34-57.74c-5.278-7.475-8.392-16.581-8.392-26.407c0-25.308,20.59-45.899,45.898-45.899   c0.24,0,0.477,0.014,0.716,0.018v-15.307C107.573,290.697,107.335,290.69,107.096,290.69z"/>
	<path style="fill:#71D1D1;" d="M474.281,382.485c0-50.575-41.112-91.726-91.671-91.794v15.299   c25.25,0.068,45.773,20.629,45.773,45.896c0,9.826-3.114,18.932-8.392,26.407c19.446,12.647,31.341,34.35,31.341,57.74v7.098   C465.605,426.945,474.281,405.711,474.281,382.485z"/>
	<path style="fill:#A0E0E0;" d="M382.484,290.69c-50.617,0-91.797,41.179-91.797,91.796c0,23.226,8.675,44.46,22.949,60.646v-7.098   c0-23.391,11.895-45.092,31.341-57.741c-5.278-7.474-8.391-16.581-8.391-26.406c0-25.308,20.59-45.899,45.898-45.899   c0.042,0,0.083,0.003,0.125,0.003v-15.3C382.568,290.69,382.526,290.69,382.484,290.69z"/>
	<path style="fill:#FDD089;" d="M80.729,389.422c-16.777,9.513-27.181,27.322-27.181,46.612v20.965   c8.309,5.988,17.66,10.614,27.717,13.57c0.261-47.012,7.47-67.454,11.398-75.121C88.372,394.018,84.357,391.977,80.729,389.422z"/>
	<path style="fill:#FBB03B;" d="M107.096,474.281c19.969,0,38.466-6.413,53.548-17.282v-20.965c0-19.289-10.404-37.1-27.182-46.612   c-7.467,5.261-16.559,8.364-26.367,8.364c-5.042,0-9.892-0.825-14.432-2.337c-3.929,7.667-11.137,28.109-11.398,75.121   C89.462,472.977,98.128,474.281,107.096,474.281z"/>
	<path style="fill:#FBB03B;" d="M107.096,382.485c16.872,0,30.599-13.727,30.599-30.599s-13.726-30.599-30.599-30.599   c-0.585,0-1.164,0.02-1.741,0.053c10.261,4.063,17.522,14.067,17.522,25.773c0,15.308-12.41,27.717-27.718,27.717   c-3.657,0-7.145-0.715-10.342-2.002C90.402,378.766,98.32,382.485,107.096,382.485z"/>
	<path style="fill:#FDD089;" d="M122.877,347.114c0-11.707-7.261-21.711-17.522-25.773c-16.065,0.906-28.858,14.258-28.858,30.546   c0,8.098,3.167,15.465,8.32,20.943c3.197,1.287,6.685,2.002,10.342,2.002C110.467,374.831,122.877,362.422,122.877,347.114z    M88.327,347.114c0-3.773,3.059-6.832,6.832-6.832s6.832,3.059,6.832,6.832s-3.059,6.832-6.832,6.832   S88.327,350.886,88.327,347.114z"/>
	<path style="fill:#FDD089;" d="M356.118,389.422c-16.777,9.513-27.182,27.322-27.182,46.612v20.965   c8.344,6.013,17.737,10.655,27.842,13.609c0.257-46.963,7.446-67.425,11.38-75.122   C363.827,394.055,359.776,391.998,356.118,389.422z"/>
	<path style="fill:#FBB03B;" d="M382.484,474.281c19.969,0,38.465-6.413,53.548-17.282v-20.965c0-19.289-10.404-37.1-27.181-46.612   c-7.467,5.261-16.559,8.364-26.367,8.364c-5.003,0-9.817-0.811-14.326-2.3c-3.934,7.698-11.123,28.16-11.38,75.122   C364.939,472.992,373.563,474.281,382.484,474.281z"/>
	<path style="fill:#FBB03B;" d="M382.484,382.485c16.872,0,30.599-13.727,30.599-30.599s-13.727-30.599-30.599-30.599   c-0.549,0-1.094,0.016-1.636,0.045c10.272,4.058,17.542,14.067,17.542,25.781c0,15.308-12.41,27.717-27.718,27.717   c-3.733,0-7.292-0.743-10.542-2.081C365.719,378.734,373.67,382.485,382.484,382.485z"/>
	<path style="fill:#FDD089;" d="M398.391,347.114c0-11.714-7.271-21.724-17.542-25.781c-16.115,0.853-28.963,14.231-28.963,30.554   c0,8.058,3.136,15.394,8.245,20.864c3.25,1.338,6.809,2.081,10.542,2.081C385.981,374.831,398.391,362.422,398.391,347.114z    M363.841,347.114c0-3.773,3.059-6.832,6.832-6.832s6.832,3.059,6.832,6.832s-3.059,6.832-6.832,6.832   S363.841,350.886,363.841,347.114z"/>
	<path d="M390.134,275.666V244.79c0-4.225-3.425-7.65-7.65-7.65H252.439v-23.224c55.496-3.936,99.446-50.34,99.446-106.821   C351.886,48.044,303.843,0.001,244.79,0.001S137.694,48.044,137.694,107.096c0,56.481,43.95,102.885,99.446,106.821v23.224H107.096   c-4.225,0-7.649,3.425-7.649,7.65v30.875C43.95,279.602,0,326.005,0,382.485c0,59.052,48.043,107.095,107.096,107.095   s107.096-48.043,107.096-107.095c0-56.481-43.95-102.884-99.446-106.82v-23.225h260.09v23.225   c-55.496,3.936-99.446,50.339-99.446,106.82c0,59.053,48.043,107.095,107.096,107.095c59.052,0,107.095-48.043,107.095-107.095   C489.58,326.005,445.63,279.602,390.134,275.666z M53.548,456.998v-20.965c0-19.29,10.404-37.099,27.181-46.612   c3.628,2.557,7.643,4.598,11.934,6.027c4.54,1.512,9.39,2.337,14.432,2.337c9.808,0,18.9-3.103,26.367-8.364   c16.777,9.512,27.182,27.323,27.182,46.612v20.965c-15.082,10.869-33.579,17.282-53.548,17.282c-8.967,0-17.633-1.303-25.831-3.712   C71.207,467.612,61.857,462.987,53.548,456.998z M76.497,351.885c0-16.288,12.793-29.64,28.858-30.546   c0.576-0.033,1.156-0.053,1.741-0.053c16.872,0,30.599,13.726,30.599,30.599s-13.726,30.599-30.599,30.599   c-8.775,0-16.694-3.718-22.278-9.656C79.664,367.351,76.497,359.984,76.497,351.885z M144.602,378.292   c5.278-7.475,8.392-16.581,8.392-26.407c0-25.068-20.204-45.495-45.182-45.88c-0.239-0.004-0.476-0.018-0.716-0.018   c-25.308,0-45.898,20.591-45.898,45.899c0,9.826,3.114,18.932,8.392,26.407c-19.446,12.648-31.34,34.349-31.34,57.74v7.098   c-14.274-16.185-22.949-37.42-22.949-60.646c0-50.616,41.18-91.796,91.796-91.796c0.24,0,0.477,0.007,0.716,0.009   c50.288,0.387,91.08,41.41,91.08,91.787c0,23.226-8.675,44.46-22.949,60.646v-7.098   C175.943,412.643,164.048,390.94,144.602,378.292z M175.943,167.743c-14.275-16.185-22.95-37.421-22.95-60.647   c0-50.616,41.18-91.795,91.797-91.795c0.48,0,0.957,0.011,1.436,0.018c49.957,0.771,90.361,41.641,90.361,91.777   c0,23.227-8.675,44.462-22.95,60.647v-7.099c0-23.39-11.895-45.092-31.341-57.74c5.278-7.474,8.392-16.581,8.392-26.407   c0-24.827-19.817-45.098-44.462-45.861c-0.478-0.015-0.954-0.036-1.436-0.036c-25.308,0-45.898,20.59-45.898,45.898   c0,9.826,3.114,18.932,8.392,26.407c-19.446,12.649-31.341,34.35-31.341,57.74L175.943,167.743L175.943,167.743z M220.32,195.568   c-10.576-2.93-20.395-7.7-29.078-13.957v-20.967c0-19.289,10.404-37.099,27.181-46.611c3.723,2.623,7.849,4.709,12.267,6.141   c4.443,1.441,9.181,2.222,14.099,2.222c9.808,0,18.9-3.103,26.367-8.364c16.776,9.512,27.181,27.324,27.181,46.612v20.967   c-15.082,10.869-33.579,17.282-53.548,17.282C236.317,198.893,228.114,197.728,220.32,195.568z M244.79,45.9   c1.413,0,2.801,0.104,4.163,0.291c14.909,2.038,26.436,14.848,26.436,30.307c0,16.872-13.726,30.599-30.599,30.599   c-10.903,0-20.486-5.736-25.907-14.345c-2.968-4.713-4.692-10.284-4.692-16.254C214.191,59.626,227.918,45.9,244.79,45.9z    M328.936,456.998v-20.965c0-19.29,10.404-37.099,27.182-46.612c3.658,2.578,7.709,4.633,12.04,6.064   c4.509,1.489,9.324,2.3,14.326,2.3c9.808,0,18.9-3.103,26.367-8.364c16.777,9.512,27.181,27.323,27.181,46.612v20.965   c-15.082,10.869-33.579,17.282-53.548,17.282c-8.921,0-17.546-1.288-25.706-3.674C346.673,467.653,337.28,463.011,328.936,456.998z    M351.886,351.885c0-16.323,12.848-29.701,28.963-30.554c0.542-0.029,1.087-0.045,1.636-0.045   c16.872,0,30.599,13.726,30.599,30.599s-13.727,30.599-30.599,30.599c-8.814,0-16.765-3.751-22.354-9.735   C355.022,367.279,351.886,359.945,351.886,351.885z M419.991,378.292c5.278-7.474,8.392-16.581,8.392-26.407   c0-25.266-20.522-45.827-45.773-45.896c-0.042,0-0.083-0.003-0.125-0.003c-25.308,0-45.898,20.591-45.898,45.899   c0,9.826,3.114,18.932,8.391,26.406c-19.446,12.648-31.341,34.349-31.341,57.741v7.098c-14.274-16.185-22.949-37.42-22.949-60.646   c0-50.616,41.18-91.796,91.797-91.796c0.042,0,0.083,0.002,0.125,0.002c50.559,0.068,91.671,41.22,91.671,91.794   c0,23.226-8.675,44.46-22.949,60.646v-7.098C451.331,412.643,439.436,390.94,419.991,378.292z"/>
	<circle style="fill:#FFFFFF;" cx="95.159" cy="347.114" r="6.832"/>
	<circle style="fill:#FFFFFF;" cx="237.13" cy="71.428" r="6.832"/>
	<circle style="fill:#FFFFFF;" cx="370.673" cy="347.114" r="6.832"/>
</g>
<g>
</g>
<g>
</g>
<g>
</g>
<g>
</g>
<g>
</g>
<g>
</g>
<g>
</g>
<g>
</g>
<g>
</g>
<g>
</g>
<g>
</g>
<g>
</g>
<g>
</g>
<g>
</g>
<g>
</g>
</svg>