<?xml version="1.0" encoding="windows-1252"?>
<!-- Generator: Adobe Illustrator 19.0.0, SVG Export Plug-In . SVG Version: 6.00 Build 0)  -->
<svg version="1.1" id="Layer_1" xmlns="http://www.w3.org/2000/svg" xmlns:xlink="http://www.w3.org/1999/xlink" x="0px" y="0px" viewBox="0 0 489.301 489.301" style="enable-background:new 0 0 489.301 489.301;" xml:space="preserve">
<g>
	<path style="fill:#71D1D1;" d="M336.5,244.651c0-50.492-41.028-91.579-91.497-91.679v15.282   c25.192,0.1,45.656,20.621,45.656,45.836c0,9.813-3.11,18.908-8.381,26.373c19.421,12.633,31.301,34.308,31.301,57.668v7.09   C327.836,289.056,336.5,267.848,336.5,244.651z"/>
	<path style="fill:#A0E0E0;" d="M244.818,152.969c-50.553,0-91.681,41.128-91.681,91.681c0,23.197,8.664,44.405,22.921,60.57v-7.09   c0-23.361,11.88-45.035,31.302-57.668c-5.272-7.465-8.381-16.56-8.381-26.374c0-25.277,20.564-45.841,45.84-45.841   c0.062,0,0.123,0.004,0.185,0.005V152.97C244.941,152.972,244.88,152.969,244.818,152.969z"/>
	<path style="fill:#71D1D1;" d="M80.221,343.971L80.221,343.971v7.053l0,0c19.605,0,35.556,15.95,35.556,35.556   c0,6.865-1.961,13.277-5.344,18.718c13.581,9.622,21.879,25.234,22.083,42.064c7.941-10.772,12.647-24.069,12.647-38.448   C145.162,373.104,116.029,343.971,80.221,343.971z"/>
	<path style="fill:#A0E0E0;" d="M15.28,408.912c0,14.379,4.705,27.675,12.646,38.447c0.19-16.807,8.49-32.433,22.084-42.063   c-3.383-5.441-5.344-11.853-5.344-18.718c0-19.605,15.95-35.555,35.556-35.556v-7.053C44.412,343.971,15.28,373.104,15.28,408.912z   "/>
	<path style="fill:#71D1D1;" d="M409.106,343.971v7.053c19.593,0.014,35.529,15.958,35.529,35.555   c0,6.864-1.961,13.277-5.344,18.717c13.581,9.622,21.879,25.235,22.083,42.064c7.941-10.772,12.646-24.069,12.646-38.448   C474.021,373.112,444.903,343.986,409.106,343.971z"/>
	<path style="fill:#A0E0E0;" d="M409.08,343.971c-35.809,0-64.94,29.133-64.94,64.941c0,14.379,4.705,27.675,12.646,38.447   c0.19-16.807,8.49-32.432,22.083-42.062c-3.383-5.441-5.344-11.853-5.344-18.718c0-19.605,15.95-35.556,35.555-35.556   c0.009,0,0.017,0.001,0.026,0.001v-7.053C409.098,343.971,409.089,343.971,409.08,343.971z"/>
	<path style="fill:#71D1D1;" d="M444.635,58.056c0,6.865-1.961,13.277-5.344,18.717c13.581,9.623,21.879,25.235,22.083,42.063   c7.941-10.772,12.646-24.069,12.646-38.448c0-35.8-29.118-64.926-64.914-64.941V22.5C428.7,22.516,444.635,38.459,444.635,58.056z"/>
	<path style="fill:#A0E0E0;" d="M356.785,118.836c0.19-16.807,8.49-32.432,22.083-42.062c-3.383-5.44-5.344-11.853-5.344-18.718   c0-19.605,15.95-35.555,35.555-35.555c0.009,0,0.017,0.001,0.026,0.001v-7.053c-0.009,0-0.017-0.001-0.026-0.001   c-35.809,0-64.94,29.133-64.94,64.941C344.14,94.768,348.845,108.064,356.785,118.836z"/>
	<path style="fill:#71D1D1;" d="M145.162,80.389c0-35.799-29.118-64.926-64.914-64.941v7.053   c19.593,0.014,35.529,15.958,35.529,35.554c0,6.865-1.961,13.278-5.344,18.718c13.581,9.622,21.879,25.235,22.083,42.063   C140.456,108.066,145.162,94.769,145.162,80.389z"/>
	<path style="fill:#A0E0E0;" d="M80.221,15.448c-35.808,0-64.941,29.133-64.941,64.941c0,14.379,4.705,27.676,12.646,38.448   c0.19-16.807,8.49-32.432,22.084-42.062c-3.383-5.441-5.344-11.854-5.344-18.718c0-19.605,15.95-35.555,35.556-35.555   c0.009,0,0.018,0.001,0.026,0.001V15.45C80.238,15.448,80.23,15.448,80.221,15.448z"/>
	<path style="fill:#FDD089;" d="M218.485,251.578c-16.756,9.5-27.147,27.289-27.147,46.554v20.94   c8.242,5.94,17.511,10.535,27.477,13.49c0.15-45.859,6.872-66.766,10.912-75.198C225.696,255.95,221.917,253.996,218.485,251.578z"/>
	<path style="fill:#FBB03B;" d="M298.299,319.072v-20.94c0-19.264-10.391-37.053-27.146-46.554   c-7.458,5.255-16.538,8.353-26.334,8.353c-5.288,0-10.363-0.91-15.091-2.567c-4.04,8.433-10.762,29.339-10.912,75.198   c8.248,2.445,16.973,3.771,26.003,3.771C264.762,336.332,283.236,329.927,298.299,319.072z"/>
	<path style="fill:#FBB03B;" d="M244.818,244.651c16.851,0,30.561-13.709,30.561-30.561c0-16.554-13.232-30.066-29.675-30.538   c8.76,4.658,14.727,13.873,14.727,24.485c0,15.308-12.41,27.718-27.718,27.718c-4.21,0-8.198-0.943-11.771-2.622   C226.547,240.146,235.164,244.651,244.818,244.651z"/>
	<path style="fill:#FDD089;" d="M260.431,208.037c0-10.613-5.967-19.828-14.727-24.485c-0.295-0.008-0.589-0.022-0.886-0.022   c-16.851,0-30.56,13.709-30.56,30.561c0,7.197,2.506,13.815,6.684,19.043c3.574,1.679,7.561,2.622,11.771,2.622   C248.022,235.755,260.431,223.345,260.431,208.037z M225.882,208.037c0-3.773,3.059-6.832,6.832-6.832s6.832,3.059,6.832,6.832   s-3.059,6.832-6.832,6.832C228.94,214.869,225.882,211.81,225.882,208.037z"/>
	<path style="fill:#FDD089;" d="M60.916,416.415c-10.963,6.717-17.721,18.663-17.721,31.579l-0.083,14.166   c5.067,3.542,10.662,6.374,16.637,8.368c0.676-28.683,4.747-43.59,7.734-50.763C65.169,418.872,62.969,417.748,60.916,416.415z"/>
	<path style="fill:#FBB03B;" d="M80.221,473.852c13.814,0,26.624-4.348,37.161-11.73l-0.136-14.055   c0-12.987-6.758-24.935-17.72-31.653c-5.564,3.613-12.191,5.721-19.305,5.721c-4.488,0-8.781-0.843-12.737-2.37   c-2.987,7.173-7.058,22.08-7.734,50.763C66.188,472.678,73.068,473.852,80.221,473.852z"/>
	<path style="fill:#FBB03B;" d="M80.221,406.855c11.18,0,20.276-9.096,20.276-20.276c0-7.332-3.925-13.748-9.772-17.309   c1.318,2.828,2.058,5.98,2.058,9.306c0,12.186-9.879,22.065-22.065,22.065c-1.997,0-3.931-0.27-5.771-0.767   C68.667,404.141,74.128,406.855,80.221,406.855z"/>
	<path style="fill:#FDD089;" d="M92.783,378.576c0-3.326-0.74-6.478-2.058-9.306c-3.068-1.869-6.656-2.966-10.504-2.966   c-11.18,0-20.276,9.095-20.276,20.275c0,5.087,1.897,9.73,5.003,13.294c1.84,0.497,3.774,0.767,5.771,0.767   C82.905,400.64,92.783,390.762,92.783,378.576z M74.746,376.67c2.224,0,4.028,1.803,4.028,4.028c0,2.224-1.803,4.028-4.028,4.028   c-2.224,0-4.028-1.804-4.028-4.028C70.718,378.473,72.522,376.67,74.746,376.67z"/>
	<path style="fill:#FDD089;" d="M389.776,416.415c-10.963,6.717-17.721,18.663-17.721,31.579l-0.083,14.166   c5.227,3.654,11.014,6.56,17.202,8.562c0.656-28.575,4.679-43.521,7.665-50.778C394.345,419.024,391.974,417.842,389.776,416.415z"/>
	<path style="fill:#FBB03B;" d="M446.24,462.123l-0.135-14.056c0-12.986-6.758-24.935-17.72-31.653   c-5.564,3.613-12.191,5.721-19.305,5.721c-4.302,0-8.421-0.782-12.24-2.191c-2.986,7.256-7.009,22.202-7.665,50.778   c6.275,2.03,12.963,3.13,19.905,3.13C422.894,473.852,435.703,469.504,446.24,462.123z"/>
	<path style="fill:#FBB03B;" d="M400.149,400.64c-2.277,0-4.473-0.345-6.54-0.986c3.722,4.397,9.272,7.201,15.471,7.201   c11.18,0,20.275-9.096,20.275-20.276c0-7.003-3.57-13.186-8.984-16.83c1.182,2.704,1.842,5.688,1.842,8.827   C422.214,390.762,412.335,400.64,400.149,400.64z"/>
	<path style="fill:#FDD089;" d="M388.805,386.579c0,4.981,1.813,9.542,4.804,13.075c2.066,0.64,4.263,0.986,6.54,0.986   c12.186,0,22.065-9.879,22.065-22.065c0-3.139-0.66-6.123-1.842-8.827c-3.229-2.174-7.115-3.445-11.292-3.445   C397.9,366.304,388.805,375.399,388.805,386.579z M401.757,376.959c2.224,0,4.028,1.803,4.028,4.028   c0,2.224-1.803,4.028-4.028,4.028s-4.028-1.803-4.028-4.028C397.729,378.762,399.532,376.959,401.757,376.959z"/>
	<path style="fill:#FDD089;" d="M389.776,87.892c-10.963,6.717-17.721,18.663-17.721,31.579l-0.083,14.166   c5.224,3.652,11.007,6.556,17.19,8.558c0.611-28.342,4.523-43.383,7.507-50.832C394.236,90.451,391.925,89.287,389.776,87.892z"/>
	<path style="fill:#FBB03B;" d="M446.24,133.6l-0.135-14.056c0-12.986-6.758-24.935-17.72-31.653   c-5.564,3.613-12.191,5.721-19.305,5.721c-4.366,0-8.545-0.801-12.411-2.249c-2.984,7.449-6.896,22.49-7.507,50.832   c6.278,2.032,12.97,3.135,19.917,3.135C422.894,145.33,435.703,140.981,446.24,133.6z"/>
	<path style="fill:#FBB03B;" d="M400.149,71.64c-2.469,0-4.84-0.412-7.057-1.16c3.713,4.768,9.491,7.852,15.988,7.852   c11.18,0,20.275-9.096,20.275-20.276c0-6.877-3.449-12.956-8.7-16.623c1.002,2.52,1.558,5.266,1.558,8.143   C422.214,61.762,412.335,71.64,400.149,71.64z"/>
	<path style="fill:#FDD089;" d="M388.805,58.056c0,4.683,1.611,8.988,4.287,12.425c2.217,0.748,4.588,1.16,7.057,1.16   c12.186,0,22.065-9.879,22.065-22.065c0-2.877-0.557-5.623-1.558-8.143c-3.286-2.295-7.272-3.652-11.575-3.652   C397.9,37.781,388.805,46.876,388.805,58.056z M404.177,46.959c2.225,0,4.028,1.803,4.028,4.028c0,2.224-1.803,4.028-4.028,4.028   c-2.224,0-4.028-1.803-4.028-4.028S401.952,46.959,404.177,46.959z"/>
	<path style="fill:#FDD089;" d="M60.916,87.892c-10.963,6.717-17.721,18.663-17.721,31.579l-0.083,14.166   c5.063,3.539,10.655,6.37,16.625,8.364c0.63-28.459,4.592-43.465,7.579-50.83C65.064,90.289,62.919,89.192,60.916,87.892z"/>
	<path style="fill:#FBB03B;" d="M80.221,145.33c13.814,0,26.624-4.349,37.161-11.73l-0.136-14.055   c0-12.987-6.758-24.935-17.72-31.652c-5.564,3.613-12.191,5.72-19.305,5.72c-4.553,0-8.902-0.872-12.905-2.441   c-2.986,7.364-6.949,22.371-7.579,50.83C66.179,144.153,73.063,145.33,80.221,145.33z"/>
	<path style="fill:#FBB03B;" d="M80.221,78.332c11.18,0,20.276-9.096,20.276-20.276c0-7.208-3.792-13.532-9.474-17.128   c1.133,2.656,1.761,5.578,1.761,8.648c0,12.186-9.879,22.065-22.065,22.065c-2.192,0-4.308-0.324-6.307-0.92   C68.131,75.354,73.831,78.332,80.221,78.332z"/>
	<path style="fill:#FDD089;" d="M92.783,49.576c0-3.069-0.628-5.992-1.761-8.648c-3.132-1.982-6.829-3.147-10.802-3.147   c-11.18,0-20.276,9.095-20.276,20.275c0,4.79,1.679,9.191,4.467,12.665c1.999,0.595,4.114,0.92,6.307,0.92   C82.905,71.64,92.783,61.762,92.783,49.576z M74.711,47.987c2.224,0,4.028,1.803,4.028,4.028s-1.803,4.028-4.028,4.028   c-2.224,0-4.028-1.803-4.028-4.028S72.487,47.987,74.711,47.987z"/>
	<path d="M409.08,328.691c-19.372,0-37.161,6.903-51.039,18.377l-32.414-32.414c16.285-18.774,26.153-43.258,26.153-70.003   c0-26.746-9.868-51.23-26.153-70.004l32.415-32.414c13.878,11.474,31.667,18.376,51.039,18.376c44.234,0,80.22-35.987,80.22-80.22   c0-44.234-35.987-80.221-80.22-80.221c-44.234,0-80.22,35.988-80.22,80.221c0,19.372,6.903,37.161,18.376,51.039l-32.415,32.414   c-18.774-16.285-43.257-26.152-70.003-26.152c-26.745,0-51.229,9.868-70.003,26.153l-32.601-32.601   c11.383-13.852,18.227-31.567,18.227-50.853c0-44.234-35.987-80.221-80.221-80.221C35.987,0.168,0,36.156,0,80.389   c0,44.234,35.987,80.22,80.221,80.22c19.457,0,37.314-6.968,51.219-18.532l32.571,32.57   c-16.286,18.774-26.153,43.258-26.153,70.003s9.868,51.229,26.153,70.003l-32.57,32.571c-13.905-11.565-31.762-18.533-51.22-18.533   C35.987,328.691,0,364.678,0,408.912s35.987,80.22,80.221,80.22s80.221-35.987,80.221-80.22c0-19.286-6.844-37.002-18.227-50.853   l32.6-32.6c18.774,16.285,43.258,26.153,70.003,26.153c26.746,0,51.23-9.868,70.003-26.153l32.414,32.414   c-11.474,13.879-18.376,31.668-18.376,51.039c0,44.234,35.986,80.22,80.22,80.22s80.22-35.987,80.22-80.22   C489.3,364.678,453.314,328.691,409.08,328.691z M409.08,15.448c0.009,0,0.017,0.001,0.026,0.001   c35.797,0.014,64.914,29.141,64.914,64.941c0,14.379-4.705,27.676-12.646,38.448c-0.204-16.828-8.502-32.441-22.083-42.063   c3.383-5.44,5.344-11.853,5.344-18.717c0-19.597-15.936-35.54-35.529-35.554c-0.009,0-0.017-0.001-0.026-0.001   c-19.605,0-35.555,15.95-35.555,35.555c0,6.865,1.961,13.278,5.344,18.718c-13.593,9.63-21.893,25.255-22.083,42.062   c-7.941-10.772-12.646-24.068-12.646-38.447C344.14,44.581,373.272,15.448,409.08,15.448z M389.163,142.195   c-6.184-2.002-11.966-4.906-17.19-8.558l0.083-14.166c0-12.916,6.758-24.862,17.721-31.579c2.149,1.396,4.461,2.56,6.894,3.471   c3.866,1.448,8.045,2.249,12.411,2.249c7.114,0,13.741-2.108,19.305-5.721c10.963,6.717,17.72,18.667,17.72,31.653l0.135,14.056   c-10.537,7.381-23.347,11.73-37.16,11.73C402.133,145.33,395.441,144.227,389.163,142.195z M409.08,37.781   c4.303,0,8.29,1.357,11.575,3.652c5.251,3.668,8.7,9.746,8.7,16.623c0,11.18-9.095,20.276-20.275,20.276   c-6.497,0-12.275-3.084-15.988-7.852c-2.676-3.436-4.287-7.742-4.287-12.425C388.805,46.876,397.9,37.781,409.08,37.781z    M43.113,133.637l0.083-14.166c0-12.916,6.758-24.862,17.721-31.579c2.003,1.3,4.148,2.397,6.4,3.28   c4.003,1.569,8.352,2.441,12.905,2.441c7.114,0,13.741-2.108,19.305-5.72c10.963,6.717,17.72,18.665,17.72,31.652l0.136,14.055   c-10.537,7.381-23.347,11.73-37.161,11.73c-7.157,0-14.041-1.177-20.483-3.328C53.767,140.007,48.176,137.177,43.113,133.637z    M59.945,58.056c0-11.18,9.096-20.275,20.276-20.275c3.972,0,7.67,1.165,10.802,3.147c5.682,3.596,9.474,9.921,9.474,17.128   c0,11.18-9.096,20.276-20.276,20.276c-6.39,0-12.09-2.978-15.809-7.612C61.624,67.247,59.945,62.846,59.945,58.056z    M110.432,76.774c3.383-5.44,5.344-11.853,5.344-18.718c0-19.596-15.936-35.54-35.529-35.554c-0.009,0-0.018-0.001-0.026-0.001   c-19.605,0-35.556,15.95-35.556,35.555c0,6.865,1.961,13.278,5.344,18.718c-13.593,9.63-21.893,25.256-22.084,42.062   c-7.94-10.771-12.645-24.068-12.645-38.447c0-35.809,29.132-64.941,64.941-64.941c0.009,0,0.018,0.001,0.026,0.001   c35.796,0.015,64.914,29.141,64.914,64.941c0,14.379-4.705,27.676-12.647,38.449C132.311,102.009,124.014,86.396,110.432,76.774z    M132.515,447.361c-0.204-16.829-8.501-32.442-22.083-42.064c3.383-5.441,5.344-11.853,5.344-18.718   c0-19.605-15.95-35.556-35.556-35.556l0,0c-19.605,0-35.556,15.95-35.556,35.556c0,6.865,1.961,13.277,5.344,18.718   c-13.593,9.63-21.893,25.256-22.084,42.063c-7.941-10.772-12.646-24.068-12.646-38.447c0-35.809,29.132-64.941,64.941-64.941l0,0   c35.809,0,64.941,29.133,64.941,64.941C145.162,423.292,140.456,436.589,132.515,447.361z M43.113,462.16l0.083-14.166   c0-12.917,6.758-24.862,17.721-31.579c2.053,1.333,4.253,2.458,6.567,3.351c3.956,1.527,8.249,2.37,12.737,2.37   c7.114,0,13.741-2.108,19.305-5.721c10.963,6.717,17.72,18.666,17.72,31.653l0.136,14.055c-10.537,7.382-23.347,11.73-37.161,11.73   c-7.153,0-14.033-1.175-20.472-3.324C53.775,468.534,48.179,465.702,43.113,462.16z M59.945,386.579   c0-11.181,9.096-20.275,20.276-20.275c3.848,0,7.436,1.097,10.504,2.966c5.846,3.561,9.772,9.977,9.772,17.309   c0,11.18-9.096,20.276-20.276,20.276c-6.093,0-11.553-2.714-15.273-6.983C61.842,396.309,59.945,391.666,59.945,386.579z    M218.815,332.561c-9.966-2.954-19.235-7.55-27.477-13.49v-20.94c0-19.265,10.391-37.053,27.147-46.554   c3.432,2.418,7.211,4.373,11.242,5.785c4.728,1.658,9.804,2.567,15.091,2.567c9.796,0,18.877-3.099,26.334-8.353   c16.755,9.501,27.146,27.29,27.146,46.554v20.94c-15.063,10.855-33.537,17.26-53.481,17.26   C235.788,336.332,227.063,335.007,218.815,332.561z M214.258,214.09c0-16.851,13.709-30.561,30.56-30.561   c0.297,0,0.591,0.014,0.886,0.022c16.442,0.472,29.675,13.984,29.675,30.538c0,16.852-13.709,30.561-30.561,30.561   c-9.654,0-18.272-4.505-23.876-11.518C216.765,227.905,214.258,221.287,214.258,214.09z M282.278,240.463   c5.271-7.465,8.381-16.56,8.381-26.373c0-25.215-20.464-45.735-45.656-45.836c-0.062-0.001-0.123-0.005-0.185-0.005   c-25.276,0-45.84,20.564-45.84,45.841c0,9.813,3.11,18.908,8.381,26.374c-19.422,12.633-31.302,34.307-31.302,57.668v7.09   c-14.256-16.165-22.921-37.373-22.921-60.57c0-50.554,41.128-91.681,91.681-91.681c0.062,0,0.123,0.002,0.185,0.003   c50.469,0.1,91.497,41.187,91.497,91.679c0,23.197-8.664,44.405-22.921,60.571v-7.09   C313.579,274.771,301.699,253.096,282.278,240.463z M461.374,447.36c-0.204-16.828-8.502-32.441-22.083-42.064   c3.383-5.441,5.344-11.853,5.344-18.717c0-19.597-15.936-35.54-35.529-35.555c-0.009,0-0.017-0.001-0.026-0.001   c-19.605,0-35.555,15.95-35.555,35.556c0,6.865,1.961,13.277,5.344,18.718c-13.593,9.63-21.893,25.255-22.083,42.062   c-7.941-10.772-12.646-24.068-12.646-38.447c0-35.809,29.132-64.941,64.94-64.941c0.009,0,0.017,0.001,0.026,0.001   c35.797,0.014,64.914,29.141,64.914,64.941C474.021,423.291,469.315,436.588,461.374,447.36z M389.175,470.722   c-6.189-2.002-11.975-4.908-17.202-8.562l0.083-14.166c0-12.917,6.758-24.862,17.721-31.579c2.199,1.428,4.569,2.609,7.064,3.53   c3.819,1.409,7.938,2.191,12.24,2.191c7.114,0,13.741-2.108,19.305-5.721c10.963,6.717,17.72,18.667,17.72,31.653l0.135,14.056   c-10.537,7.381-23.347,11.729-37.16,11.729C402.138,473.852,395.449,472.752,389.175,470.722z M409.08,366.304   c4.177,0,8.062,1.271,11.292,3.445c5.414,3.644,8.984,9.827,8.984,16.83c0,11.18-9.095,20.276-20.275,20.276   c-6.199,0-11.749-2.803-15.471-7.201c-2.991-3.534-4.804-8.094-4.804-13.075C388.805,375.399,397.9,366.304,409.08,366.304z"/>
	<circle style="fill:#FFFFFF;" cx="232.714" cy="208.037" r="6.832"/>
	<circle style="fill:#FFFFFF;" cx="74.711" cy="52.014" r="4.028"/>
	<circle style="fill:#FFFFFF;" cx="74.746" cy="380.698" r="4.028"/>
	<circle style="fill:#FFFFFF;" cx="401.757" cy="380.986" r="4.028"/>
	<circle style="fill:#FFFFFF;" cx="404.177" cy="50.986" r="4.028"/>
</g>
<g>
</g>
<g>
</g>
<g>
</g>
<g>
</g>
<g>
</g>
<g>
</g>
<g>
</g>
<g>
</g>
<g>
</g>
<g>
</g>
<g>
</g>
<g>
</g>
<g>
</g>
<g>
</g>
<g>
</g>
</svg>