<?xml version="1.0" encoding="UTF-8" standalone="no"?>
<!-- Created with Inkscape (http://www.inkscape.org/) -->
<svg xmlns:dc="http://purl.org/dc/elements/1.1/" xmlns:cc="http://creativecommons.org/ns#" xmlns:rdf="http://www.w3.org/1999/02/22-rdf-syntax-ns#" xmlns:svg="http://www.w3.org/2000/svg" xmlns="http://www.w3.org/2000/svg" xmlns:sodipodi="http://sodipodi.sourceforge.net/DTD/sodipodi-0.dtd" xmlns:inkscape="http://www.inkscape.org/namespaces/inkscape" width="98.706841mm" height="104.75447mm" viewBox="0 0 98.706841 104.75447" version="1.1" id="svg8" inkscape:version="0.92.2 5c3e80d, 2017-08-06" sodipodi:docname="linter.svg">
  <defs id="defs2"/>
  <sodipodi:namedview id="base" pagecolor="#ffffff" bordercolor="#666666" borderopacity="1.0" inkscape:pageopacity="0.0" inkscape:pageshadow="2" inkscape:zoom="1.4" inkscape:cx="311.37716" inkscape:cy="193.7449" inkscape:document-units="mm" inkscape:current-layer="layer1" showgrid="false" inkscape:snap-global="false" fit-margin-top="0" fit-margin-left="0" fit-margin-right="0" fit-margin-bottom="0" inkscape:window-width="1920" inkscape:window-height="1054" inkscape:window-x="0" inkscape:window-y="0" inkscape:window-maximized="1" inkscape:lockguides="true"/>
  <metadata id="metadata5">
    <rdf:RDF>
      <cc:Work rdf:about="">
        <dc:format>image/svg+xml</dc:format>
        <dc:type rdf:resource="http://purl.org/dc/dcmitype/StillImage"/>
        <dc:title/>
      </cc:Work>
    </rdf:RDF>
  </metadata>
  <g inkscape:label="Layer 1" inkscape:groupmode="layer" id="layer1" transform="translate(-74.150297,-141.34077)">
    <path style="fill:#cccccc;fill-rule:evenodd;stroke:none;stroke-width:0.26458332px;stroke-linecap:butt;stroke-linejoin:miter;stroke-opacity:1" d="m 75.784003,159.65222 c 9.388663,3.21822 34.057297,1.08082 36.704237,9.23047 3.77787,11.63165 -5.47617,34.27729 -46.977554,32.00514 -2.424816,-0.30335 21.984621,4.08792 42.578074,4.21788 0.29639,-0.86857 0.37988,-1.61871 0.41497,-2.30942 0.0382,-0.7512 -0.0284,-1.41702 0.016,-2.2934 -0.004,-2.60863 0.23294,-4.07583 0.75344,-4.9723 l 21.97334,-35.94975 c -20.13408,-1.3159 -34.629763,0.98887 -55.462507,0.0714 z" id="path4620" inkscape:connector-curvature="0" sodipodi:nodetypes="cscccccccc"/>
    <path style="fill:#5f8dd3;fill-rule:evenodd;stroke:none;stroke-width:0.09738912px;stroke-linecap:butt;stroke-linejoin:miter;stroke-opacity:1" d="m 91.841907,238.18112 c 0.70024,0.45104 2.073809,0.43175 4.42491,-0.0419 9.937573,-2.00207 8.514803,-17.38975 15.792093,-25.39454 4.17852,-4.59624 13.79967,-0.5485 14.85868,-3.51518 2.23542,-4.68349 -11.92556,-13.77774 -15.29956,-10.47527 -1.66408,0.93298 1.37156,4.84576 -3.79262,10.98998 -3.51179,4.17824 -14.243018,18.11287 -16.21266,25.06898 -0.493138,1.74161 -0.564448,2.85676 0.229157,3.36794 z m 2.60551,-1.50786 c -0.137868,-0.091 -0.27364,-0.22379 -0.403951,-0.40452 -1.519813,-2.10788 0.864429,-4.77433 2.163011,-3.14284 1.112107,1.39721 -0.426285,4.42653 -1.759058,3.54736 z" id="path4485" inkscape:connector-curvature="0" sodipodi:nodetypes="sssccsssccccc"/>
    <path style="opacity:1;fill:#5f8dd3;fill-opacity:1;stroke:none;stroke-width:10;stroke-linecap:round;stroke-linejoin:round;stroke-miterlimit:4;stroke-dasharray:none;stroke-opacity:1" d="m 129.1676,208.21505 22.78717,-37.27795 c -0.59951,-6.94676 -11.31478,-14.37205 -17.95664,-11.63482 l -22.55846,36.9038 c 4.78024,-3.15595 19.51793,5.978 17.72793,12.00897 z" id="rect4489" inkscape:connector-curvature="0" sodipodi:nodetypes="ccccc"/>
    <path style="font-style:normal;font-variant:normal;font-weight:normal;font-stretch:normal;font-size:4.53151083px;line-height:125%;font-family:'Linux Biolinum';-inkscape-font-specification:'Linux Biolinum';letter-spacing:0px;word-spacing:0px;fill:#000080;fill-opacity:1;stroke:none;stroke-width:0.42817426px;stroke-linecap:butt;stroke-linejoin:miter;stroke-opacity:1" d="M 287.11719 107.79688 C 287.05361 107.80377 286.99005 107.82231 286.92773 107.85352 C 286.54637 108.03824 286.56415 108.54356 286.97852 109.37109 C 287.10832 109.63032 287.19666 109.85828 287.24414 110.05273 C 287.03717 110.0005 286.80008 109.89379 286.5332 109.73438 C 286.27131 109.57246 286.03989 109.45783 285.83789 109.39062 C 285.64088 109.32093 285.44442 109.33624 285.25 109.43359 C 285.13534 109.49101 285.05653 109.58093 285.01172 109.70312 C 284.96941 109.83031 284.98143 109.9611 285.04883 110.0957 C 285.13619 110.27018 285.27903 110.37483 285.47852 110.41211 C 285.68548 110.45188 285.97564 110.45363 286.34961 110.41602 C 286.73106 110.38089 287.00819 110.36479 287.17773 110.36719 C 287.08557 110.51933 286.91465 110.72917 286.66797 110.99609 C 286.42877 111.26551 286.25554 111.49828 286.14844 111.69531 C 286.04882 111.89483 286.04349 112.08138 286.13086 112.25586 C 286.18578 112.36553 286.2757 112.4463 286.40039 112.49609 C 286.52758 112.55087 286.65837 112.54396 286.79297 112.47656 C 286.97742 112.3842 287.09848 112.24085 287.1582 112.04883 C 287.22541 111.8593 287.27919 111.60856 287.31641 111.29688 C 287.35861 110.98269 287.41413 110.73109 287.48633 110.53906 C 287.65102 110.76835 287.81344 111.03945 287.9707 111.35352 C 288.32267 112.05642 288.68753 112.31276 289.06641 112.12305 C 289.17109 112.07063 289.25133 111.97647 289.30859 111.8418 C 289.37334 111.70961 289.35994 111.55164 289.26758 111.36719 C 289.17522 111.18274 288.94105 111.00156 288.56445 110.82227 C 288.19285 110.64047 287.9193 110.47284 287.74219 110.31836 C 287.89175 110.25594 288.16275 110.1807 288.55664 110.0957 C 288.95801 110.01319 289.23043 109.93567 289.375 109.86328 C 289.72895 109.68605 289.82208 109.42883 289.65234 109.08984 C 289.58744 108.96023 289.47404 108.87998 289.31445 108.84766 C 289.15736 108.82032 288.99654 108.84731 288.83203 108.92969 C 288.69743 108.99708 288.50558 109.15906 288.25391 109.41602 C 288.00971 109.67546 287.79011 109.866 287.5957 109.98828 C 287.57812 109.76639 287.60567 109.44767 287.67773 109.03125 C 287.75229 108.61981 287.73993 108.31747 287.64258 108.12305 C 287.55521 107.94857 287.4452 107.84483 287.31055 107.8125 C 287.24571 107.79508 287.18076 107.78998 287.11719 107.79688 z M 212.94531 117.85352 L 206.33203 120.46875 L 206.89844 121.10547 L 212.28516 118.98633 L 209.52344 124.06445 L 210.0957 124.70898 L 213.48828 118.4668 L 212.94531 117.85352 z M 202.55664 118.22852 L 202.03125 118.69531 L 207.01172 130.41992 L 207.53711 129.95312 L 202.55664 118.22852 z M 277.63281 119.38867 L 277.42578 119.84375 C 277.96587 120.13768 278.36404 120.37769 278.62305 120.5625 C 278.88713 120.74961 279.06837 120.95485 279.16406 121.17578 C 279.26483 121.39902 279.28842 121.60535 279.23828 121.79688 C 279.19553 121.98563 279.09033 122.26881 278.91992 122.64453 L 274.59766 132.17188 C 274.42725 132.5476 274.28172 132.81806 274.1582 132.98242 C 274.03976 133.14909 273.86449 133.26117 273.63477 133.32227 C 273.40781 133.39074 273.14408 133.38838 272.8418 133.3125 C 272.53721 133.2417 272.09373 133.0978 271.51172 132.88281 L 271.30078 133.34766 L 274.65234 134.86719 L 280.98242 120.9082 L 277.63281 119.38867 z M 283.26758 121.94336 L 283.06055 122.40039 C 283.60064 122.69432 284.00076 122.93433 284.25977 123.11914 C 284.52385 123.30625 284.70313 123.50954 284.79883 123.73047 C 284.8996 123.95371 284.92513 124.16199 284.875 124.35352 C 284.83225 124.54227 284.72509 124.82349 284.55469 125.19922 L 280.23438 134.72656 C 280.06397 135.10229 279.91649 135.37275 279.79297 135.53711 C 279.67453 135.70378 279.50121 135.81781 279.27148 135.87891 C 279.04453 135.94738 278.77885 135.94502 278.47656 135.86914 C 278.17198 135.79834 277.7285 135.65445 277.14648 135.43945 L 276.93555 135.9043 L 280.28711 137.42383 L 286.61914 123.46289 L 283.26758 121.94336 z M 250.36133 124.90625 L 243.67969 127.31641 L 243.67969 128.14453 L 250.36133 130.56836 L 250.36133 129.71484 L 244.93359 127.73438 L 250.36133 125.75977 L 250.36133 124.90625 z M 200.94922 125.19922 L 197.55078 131.4375 L 198.09961 132.05664 L 204.70703 129.43555 L 204.14062 128.79688 L 198.76562 130.91602 L 201.51562 125.83789 L 200.94922 125.19922 z M 237.64453 126.89844 C 236.26788 126.85371 235.47227 127.58873 235.25977 129.10156 L 234.82031 132.22461 C 234.73659 132.70803 234.53256 133.10657 234.20703 133.41797 C 233.88151 133.72937 233.42848 133.86237 232.84766 133.81836 C 232.68749 133.92642 232.66379 134.06154 232.77734 134.22266 C 233.88615 134.55049 234.32556 135.28532 234.09375 136.42773 L 233.49805 139.27734 C 233.27238 140.31897 233.33365 141.07086 233.68359 141.5332 C 234.03808 142.00199 234.67208 142.31667 235.58398 142.47461 C 235.64104 142.43922 235.67487 142.37364 235.68555 142.2793 C 235.70077 142.1914 235.68868 142.12187 235.65234 142.07031 C 235.26231 142.00276 234.97031 141.7356 234.77344 141.27148 C 234.57562 140.81286 234.55119 140.25006 234.70117 139.58008 L 235.26953 137.08008 C 235.41476 136.43757 235.37362 135.89649 235.14453 135.45508 C 234.91544 135.01367 234.51158 134.60984 233.93555 134.24414 L 233.94727 134.17773 C 234.6104 134.10587 235.11661 133.93152 235.46484 133.65234 C 235.81403 133.36767 236.03322 132.87329 236.12109 132.16992 L 236.47266 129.35352 C 236.52299 128.93221 236.60431 128.58711 236.71875 128.31836 C 236.83414 128.04412 236.98492 127.84729 237.16992 127.72656 C 237.36136 127.60129 237.5263 127.51669 237.66406 127.47266 C 237.80827 127.42408 237.98645 127.38887 238.19922 127.36914 C 238.25817 127.32277 238.291 127.26145 238.29883 127.18359 C 238.3131 127.10119 238.30396 127.02739 238.26953 126.96484 C 238.04911 126.92667 237.8412 126.90483 237.64453 126.89844 z M 242.32422 127.70898 C 240.94757 127.66426 240.15196 128.39928 239.93945 129.91211 L 239.50195 133.03516 C 239.41823 133.51858 239.21224 133.91711 238.88672 134.22852 C 238.56119 134.53992 238.10817 134.67292 237.52734 134.62891 C 237.36717 134.73696 237.34348 134.87208 237.45703 135.0332 C 238.56584 135.36104 239.00525 136.09587 238.77344 137.23828 L 238.17773 140.08789 C 237.95207 141.12952 238.01333 141.88141 238.36328 142.34375 C 238.71777 142.81253 239.35177 143.12722 240.26367 143.28516 C 240.32072 143.24977 240.35455 143.18418 240.36523 143.08984 C 240.38046 143.00195 240.37032 142.93242 240.33398 142.88086 C 239.94395 142.81331 239.64999 142.5481 239.45312 142.08398 C 239.25531 141.62536 239.23087 141.06061 239.38086 140.39062 L 239.94922 137.89062 C 240.09445 137.24811 240.05331 136.70703 239.82422 136.26562 C 239.59513 135.82422 239.19323 135.42039 238.61719 135.05469 L 238.62891 134.98828 C 239.29204 134.91641 239.7963 134.74207 240.14453 134.46289 C 240.49372 134.17822 240.71291 133.68384 240.80078 132.98047 L 241.15234 130.16406 C 241.20268 129.74276 241.28595 129.39765 241.40039 129.12891 C 241.51579 128.85467 241.66461 128.65784 241.84961 128.53711 C 242.04105 128.41184 242.20598 128.32724 242.34375 128.2832 C 242.48796 128.23462 242.66614 128.19942 242.87891 128.17969 C 242.93786 128.13332 242.97264 128.072 242.98047 127.99414 C 242.99474 127.91174 242.98365 127.83989 242.94922 127.77734 C 242.7288 127.73917 242.52088 127.71537 242.32422 127.70898 z M 265.91602 145.51953 L 258.82227 146 L 259.16602 146.7793 L 264.94336 146.39844 L 260.76758 150.39648 L 261.11719 151.18359 L 266.24805 146.26953 L 265.91602 145.51953 z M 230.82812 145.52148 L 230.40625 146.82031 C 229.68228 146.65764 228.96522 146.74601 228.25195 147.08789 C 227.54011 147.42438 227.0849 147.96761 226.88672 148.7168 C 226.78834 149.08869 226.76488 149.4462 226.81836 149.78906 C 226.87326 150.12654 227.00039 150.44347 227.19922 150.73828 C 227.39805 151.03309 227.60928 151.29337 227.83203 151.51953 C 228.05478 151.7457 228.32724 151.98208 228.64844 152.22852 L 227.35352 156.23633 C 226.9071 156.04904 226.53604 155.76732 226.23828 155.38867 C 225.94591 155.01145 225.75476 154.58206 225.66797 154.10352 L 225.51953 154.08203 C 225.39229 154.38862 225.1548 154.86165 224.80664 155.50195 L 224.82617 155.55859 C 224.87263 155.62279 224.94435 155.70958 225.04297 155.81641 C 225.1484 155.91927 225.39749 156.09004 225.78906 156.33203 C 226.18603 156.57545 226.6314 156.77553 227.12695 156.92969 L 226.66016 158.37109 C 226.97276 158.45379 227.18365 158.48136 227.29492 158.45312 L 227.73633 157.08203 C 228.64418 157.24721 229.44443 157.16155 230.13867 156.82617 C 230.9499 156.441 231.47426 155.80096 231.71094 154.90625 C 231.80076 154.56669 231.82426 154.2389 231.78125 153.92188 C 231.73967 153.59946 231.65583 153.31725 231.5293 153.07617 C 231.40815 152.83652 231.23316 152.5948 231.00391 152.34961 C 230.77608 152.09903 230.56008 151.89518 230.35938 151.73828 C 230.16009 151.57599 229.92128 151.4 229.64258 151.21094 L 230.78711 147.67188 C 231.42314 148.0362 231.82132 148.68103 231.98047 149.60547 L 232.1543 149.63477 C 232.32858 149.15031 232.55612 148.69077 232.83789 148.25781 L 232.81055 148.19922 L 232.67969 148.00781 C 232.59756 147.88228 232.40384 147.71916 232.09961 147.51758 C 231.80077 147.31742 231.43778 147.14392 231.00977 146.99609 L 231.46484 145.60352 C 231.20074 145.53365 230.98791 145.50608 230.82812 145.52148 z M 229.82227 147.36914 C 229.93909 147.37986 230.05963 147.40275 230.18359 147.43555 L 230.20703 147.44141 L 229.10938 150.81055 C 228.2482 150.09832 227.91705 149.36637 228.11523 148.61719 C 228.2407 148.14289 228.49091 147.79568 228.86719 147.57227 C 229.15344 147.40578 229.47178 147.33698 229.82227 147.36914 z M 239.75391 149.29102 C 239.40485 149.30249 238.77378 149.37372 237.86328 149.50195 C 236.9596 149.62622 236.25788 149.69975 235.75586 149.72266 L 235.72656 150.22461 C 235.96403 150.26436 236.31831 150.30726 236.79102 150.35156 C 237.26514 150.39048 237.56353 150.42619 237.6875 150.45898 C 237.88692 150.51174 237.87671 150.95802 237.6543 151.79883 L 236.56641 155.90625 C 236.19888 157.27383 235.87742 158.30402 235.60156 158.99805 L 235.60547 159.05078 L 236.38672 159.20508 C 236.6077 159.26353 236.86735 159.34928 237.16602 159.46289 L 237.21094 159.42383 C 237.33919 158.54658 237.56608 157.49012 237.89258 156.25586 L 239.00586 152.05273 C 239.31525 150.88315 239.5955 149.99936 239.8457 149.40234 C 239.85996 149.34845 239.82936 149.31098 239.75391 149.29102 z M 215.88867 149.89844 L 215.35352 150.54102 L 220.56055 154.86133 L 221.0957 154.2168 L 215.88867 149.89844 z M 214.52148 151.54492 L 213.98828 152.18945 L 219.19336 156.50977 L 219.72852 155.86523 L 214.52148 151.54492 z M 298.97656 151.60742 L 291.88867 152.07227 L 291.66016 152.86719 L 297.41016 157.04688 L 297.64648 156.22852 L 292.97852 152.82031 L 298.74023 152.42578 L 298.97656 151.60742 z M 284.87305 151.66602 L 272.37305 161.54297 L 272.89062 162.19922 L 285.39062 152.32227 L 284.87305 151.66602 z M 300.55078 152.0957 L 300.31445 152.91406 L 304.98633 156.33203 L 299.2207 156.7168 L 298.98242 157.54297 L 299.32227 157.51953 C 299.1483 157.65443 298.98455 157.8193 298.83594 158.0293 C 298.48289 158.52817 298.29499 159.07213 298.27148 159.66211 L 298.50195 159.67773 C 298.62965 159.2919 298.85788 158.9588 299.1875 158.67773 C 299.52264 158.39584 299.8479 158.23114 300.16211 158.18359 C 300.46997 158.13137 300.91576 158.2475 301.5 158.53125 C 302.08591 158.82602 302.5354 158.94989 302.84961 158.90234 C 303.04254 158.87315 303.23887 158.80648 303.4375 158.70312 C 303.6353 158.59425 303.85471 158.35577 304.09766 157.98633 C 304.24453 157.75886 304.35159 157.48093 304.4375 157.17969 L 306.07031 157.07031 L 306.29883 156.2832 L 300.55078 152.0957 z M 229.18359 152.62109 C 229.65476 152.97641 229.98961 153.33546 230.1875 153.69922 C 230.38681 154.05759 230.41037 154.52485 230.25781 155.10156 C 230.11524 155.64054 229.82809 156.01788 229.39648 156.23242 C 228.96488 156.44697 228.4839 156.50782 227.95508 156.41406 L 229.18359 152.62109 z M 327.09375 153.05078 C 326.98042 153.457 326.77309 153.78011 326.4707 154.01758 C 326.17383 154.25421 325.8781 154.39329 325.58594 154.4375 C 325.3489 154.47337 324.91057 154.34893 324.26953 154.0625 C 323.62548 153.79344 323.1797 153.67731 322.93164 153.71484 C 322.43552 153.78991 322.01125 154.0773 321.6582 154.57617 C 321.30515 155.07505 321.1153 155.61901 321.0918 156.20898 L 321.32227 156.22461 C 321.44996 155.83878 321.68014 155.50567 322.00977 155.22461 C 322.3449 154.94271 322.66821 154.77801 322.98242 154.73047 C 323.29028 154.67825 323.73802 154.79438 324.32227 155.07812 C 324.90818 155.3729 325.35767 155.49676 325.67188 155.44922 C 325.86481 155.42003 326.06114 155.35336 326.25977 155.25 C 326.45756 155.14113 326.67697 154.90264 326.91992 154.5332 C 327.16203 154.15825 327.32199 153.68285 327.39844 153.10742 L 327.09375 153.05078 z M 286.4082 153.53125 C 286.37136 153.54082 286.33406 153.56046 286.29688 153.58984 C 286.23034 153.64952 286.19574 153.71571 286.19531 153.78711 C 286.44073 154.09769 286.4834 154.49171 286.32031 154.96875 C 286.16069 155.45016 285.80097 155.89016 285.24219 156.28906 L 283.15234 157.75781 C 282.61105 158.14289 282.27823 158.57696 282.1543 159.05859 C 282.03474 159.53677 282.06696 160.10496 282.25195 160.76172 L 282.20117 160.80273 C 281.66277 160.41812 281.16638 160.21287 280.71289 160.1875 C 280.26723 160.16305 279.77699 160.38439 279.24219 160.84961 L 277.09961 162.72266 C 276.78098 163.00285 276.48678 163.20285 276.21875 163.32227 C 275.95418 163.44606 275.71204 163.48908 275.49023 163.45117 C 275.26751 163.4211 275.08662 163.37405 274.95117 163.31055 C 274.81481 163.25487 274.66187 163.1644 274.49023 163.03711 C 274.40847 163.02356 274.33663 163.0395 274.27539 163.08789 C 274.21323 163.14411 274.17715 163.21271 274.16797 163.29102 C 275.27751 164.69519 276.49937 164.83462 277.83398 163.70898 L 280.24609 161.67578 C 280.63104 161.37161 281.04631 161.21242 281.49219 161.20117 C 281.94243 161.18647 282.37022 161.39018 282.77344 161.81055 C 282.96484 161.83695 283.0708 161.75241 283.09375 161.55664 C 282.49107 160.56911 282.65681 159.72742 283.5918 159.03125 L 285.9375 157.30469 C 286.80066 156.67949 287.2544 156.07638 287.29883 155.49414 C 287.35109 154.91282 287.09136 154.25935 286.51758 153.5332 C 286.48107 153.52297 286.44505 153.52168 286.4082 153.53125 z M 319.48633 154.20312 C 319.373 154.60934 319.16567 154.9305 318.86328 155.16797 C 318.56641 155.4046 318.27067 155.54564 317.97852 155.58984 C 317.74148 155.62571 317.30315 155.49932 316.66211 155.21289 C 316.01806 154.94383 315.57228 154.8277 315.32422 154.86523 C 314.8281 154.9403 314.40383 155.22769 314.05078 155.72656 C 313.69773 156.22544 313.50788 156.7694 313.48438 157.35938 L 313.7168 157.37695 C 313.84449 156.99112 314.07272 156.65606 314.40234 156.375 C 314.73748 156.09311 315.06274 155.9284 315.37695 155.88086 C 315.68482 155.82864 316.1306 155.94477 316.71484 156.22852 C 317.30076 156.52329 317.75024 156.64715 318.06445 156.59961 C 318.25739 156.57042 318.45371 156.50375 318.65234 156.40039 C 318.85014 156.29152 319.06955 156.05304 319.3125 155.68359 C 319.55461 155.30864 319.71457 154.83325 319.79102 154.25781 L 319.48633 154.20312 z M 311.87891 155.35352 C 311.76557 155.75973 311.55825 156.08089 311.25586 156.31836 C 310.95899 156.55499 310.66325 156.69603 310.37109 156.74023 C 310.13406 156.7761 309.69572 156.65167 309.05469 156.36523 C 308.41064 156.09618 307.96486 155.98004 307.7168 156.01758 C 307.22068 156.09265 306.79641 156.38003 306.44336 156.87891 C 306.09031 157.37778 305.90241 157.92174 305.87891 158.51172 L 306.10938 158.52734 C 306.23707 158.14151 306.4653 157.8084 306.79492 157.52734 C 307.13006 157.24545 307.45532 157.08075 307.76953 157.0332 C 308.07739 156.98098 308.52318 157.09711 309.10742 157.38086 C 309.69333 157.67563 310.14282 157.79754 310.45703 157.75 C 310.64997 157.72081 310.84629 157.65609 311.04492 157.55273 C 311.24272 157.44386 311.46213 157.20343 311.70508 156.83398 C 311.94719 156.45903 312.10714 155.98364 312.18359 155.4082 L 311.87891 155.35352 z M 256.95898 156.71484 C 256.81403 156.71484 256.6902 156.77997 256.58984 156.9082 C 256.49507 157.03643 256.44922 157.19102 256.44922 157.375 C 256.44922 157.52553 256.50597 157.77124 256.62305 158.11133 C 256.7457 158.44584 256.8195 158.72845 256.8418 158.95703 C 256.63552 158.8734 256.36157 158.70596 256.02148 158.45508 C 255.68697 158.20419 255.41079 158.07812 255.19336 158.07812 C 254.99823 158.07812 254.85678 158.1304 254.76758 158.23633 C 254.67838 158.33668 254.63281 158.45632 254.63281 158.5957 C 254.62724 159.01942 255.08819 159.23242 256.01367 159.23242 C 256.30358 159.23242 256.5451 159.25423 256.74023 159.29883 C 256.60085 159.46051 256.40071 159.62571 256.13867 159.79297 C 255.87664 159.95465 255.67006 160.11119 255.51953 160.26172 C 255.369 160.40667 255.29492 160.58726 255.29492 160.80469 C 255.29492 160.93292 255.33853 161.04389 255.42773 161.13867 C 255.52251 161.23345 255.64634 161.28125 255.79688 161.28125 C 255.99201 161.28125 256.15078 161.20074 256.27344 161.03906 C 256.40167 160.87181 256.53221 160.61296 256.66602 160.26172 C 256.8054 159.90491 256.91413 159.65053 256.99219 159.5 C 257.08697 159.65053 257.19794 159.89624 257.32617 160.23633 C 257.45998 160.57084 257.59052 160.82969 257.71875 161.01367 C 257.85255 161.19208 258.01776 161.28125 258.21289 161.28125 C 258.33554 161.28125 258.44652 161.23569 258.54688 161.14648 C 258.6528 161.05728 258.70703 160.93764 258.70703 160.78711 C 258.70703 160.58083 258.63324 160.40891 258.48828 160.26953 C 258.3489 160.12458 258.14875 159.9658 257.88672 159.79297 C 257.62469 159.61456 257.42454 159.44936 257.28516 159.29883 C 257.56392 159.25423 257.87923 159.23242 258.23047 159.23242 C 259.01657 159.23242 259.4082 159.01942 259.4082 158.5957 C 259.4082 158.47862 259.3604 158.36541 259.26562 158.25391 C 259.17642 158.13683 259.0305 158.07812 258.82422 158.07812 C 258.61794 158.07812 258.35042 158.20643 258.02148 158.46289 C 257.69255 158.71377 257.4186 158.88345 257.20117 158.97266 C 257.21232 158.81098 257.26879 158.53479 257.36914 158.14453 C 257.47507 157.74869 257.52734 157.47027 257.52734 157.30859 C 257.52734 156.91276 257.3381 156.71484 256.95898 156.71484 z M 264.38477 156.71484 C 264.23981 156.71484 264.11793 156.77997 264.01758 156.9082 C 263.9228 157.03643 263.875 157.19102 263.875 157.375 C 263.875 157.52553 263.9337 157.77124 264.05078 158.11133 C 264.17344 158.44584 264.24528 158.72845 264.26758 158.95703 C 264.0613 158.8734 263.78735 158.70596 263.44727 158.45508 C 263.11275 158.20419 262.83657 158.07812 262.61914 158.07812 C 262.42401 158.07812 262.28256 158.1304 262.19336 158.23633 C 262.10416 158.33668 262.06055 158.45632 262.06055 158.5957 C 262.05497 159.01942 262.51397 159.23242 263.43945 159.23242 C 263.72936 159.23242 263.97284 159.25423 264.16797 159.29883 C 264.02859 159.46051 263.82649 159.62571 263.56445 159.79297 C 263.30242 159.95465 263.09584 160.11119 262.94531 160.26172 C 262.79478 160.40667 262.7207 160.58726 262.7207 160.80469 C 262.7207 160.93292 262.76431 161.04389 262.85352 161.13867 C 262.94829 161.23345 263.07213 161.28125 263.22266 161.28125 C 263.41779 161.28125 263.57656 161.20074 263.69922 161.03906 C 263.82745 160.87181 263.95799 160.61296 264.0918 160.26172 C 264.23118 159.90491 264.33992 159.65053 264.41797 159.5 C 264.51275 159.65053 264.62372 159.89624 264.75195 160.23633 C 264.88576 160.57084 265.01826 160.82969 265.14648 161.01367 C 265.28029 161.19208 265.44354 161.28125 265.63867 161.28125 C 265.76133 161.28125 265.8723 161.23569 265.97266 161.14648 C 266.07858 161.05728 266.13281 160.93764 266.13281 160.78711 C 266.13281 160.58083 266.05902 160.40891 265.91406 160.26953 C 265.77468 160.12458 265.57453 159.9658 265.3125 159.79297 C 265.05047 159.61456 264.85032 159.44936 264.71094 159.29883 C 264.9897 159.25423 265.30501 159.23242 265.65625 159.23242 C 266.44235 159.23242 266.83398 159.01942 266.83398 158.5957 C 266.83398 158.47862 266.78814 158.36541 266.69336 158.25391 C 266.60416 158.13683 266.45628 158.07812 266.25 158.07812 C 266.04372 158.07812 265.7762 158.20643 265.44727 158.46289 C 265.11833 158.71377 264.84439 158.88345 264.62695 158.97266 C 264.6381 158.81098 264.69457 158.53479 264.79492 158.14453 C 264.90085 157.74869 264.95312 157.47027 264.95312 157.30859 C 264.95312 156.91276 264.76388 156.71484 264.38477 156.71484 z M 303.88086 157.2168 C 303.80661 157.30421 303.74003 157.39878 303.64844 157.4707 C 303.35156 157.70734 303.05778 157.84642 302.76562 157.89062 C 302.52859 157.92649 302.0883 157.80206 301.44727 157.51562 C 301.31864 157.46189 301.23392 157.4419 301.12109 157.40039 L 303.88086 157.2168 z M 261.85938 161.96094 L 260.61523 164.8457 L 259.01953 164.43945 L 258.64844 165.28516 L 260.25195 165.69336 L 259.44336 167.54883 L 257.83789 167.14062 L 257.49609 167.97656 L 259.0918 168.38477 L 257.84961 171.25977 L 258.42578 171.40625 L 259.69141 168.53711 L 261.62891 169.03125 L 260.40234 171.91016 L 260.98633 172.06055 L 262.24414 169.1875 L 263.82422 169.58984 L 264.17578 168.75586 L 262.5625 168.3457 L 263.38867 166.49219 L 264.98438 166.90039 L 265.33984 166.04883 L 263.73633 165.64062 L 264.98047 162.75586 L 264.39648 162.60742 L 263.16797 165.49609 L 261.19141 164.99219 L 262.45898 162.11328 L 261.85938 161.96094 z M 269.67188 163.95117 L 268.42773 166.83594 L 266.83203 166.42969 L 266.46094 167.27539 L 268.06445 167.68359 L 267.25586 169.54102 L 265.65039 169.13086 L 265.30859 169.96875 L 266.9043 170.375 L 265.66211 173.25195 L 266.23828 173.39844 L 267.50391 170.52734 L 269.44141 171.02148 L 268.21484 173.90234 L 268.79883 174.05078 L 270.05664 171.17773 L 271.63672 171.58008 L 271.98828 170.74609 L 270.375 170.33594 L 271.20117 168.48438 L 272.79688 168.89062 L 273.15234 168.04102 L 271.54688 167.63086 L 272.79102 164.74609 L 272.20898 164.59766 L 270.98047 167.48633 L 269.00195 166.98242 L 270.27148 164.10352 L 269.67188 163.95117 z M 252.55664 164.15039 C 252.20492 164.16204 251.81001 164.24211 251.37109 164.38867 C 251.32705 164.4504 251.31959 164.52534 251.34961 164.61523 C 251.38315 164.69808 251.43494 164.7527 251.50195 164.77734 C 251.87741 164.65197 252.26097 164.74713 252.6543 165.0625 C 253.05291 165.37611 253.34578 165.8624 253.53125 166.52344 L 254.20312 168.98828 C 254.38153 169.62817 254.67696 170.08904 255.08789 170.36914 C 255.49706 170.64396 256.0421 170.80451 256.72266 170.85352 L 256.74414 170.91797 C 256.19956 171.29378 255.838 171.68949 255.66016 172.10742 C 255.48583 172.5183 255.52526 173.0558 255.78125 173.7168 L 256.81836 176.36719 C 256.97372 176.76202 257.06072 177.10579 257.08203 177.39844 C 257.10863 177.68932 257.06605 177.93315 256.95508 178.12891 C 256.85117 178.32818 256.74635 178.4801 256.64062 178.58594 C 256.54195 178.6953 256.40457 178.80952 256.22656 178.92773 C 256.18605 179.00004 256.1784 179.0744 256.20312 179.14844 C 256.2349 179.22599 256.28493 179.28118 256.35547 179.31641 C 258.05296 178.74957 258.59973 177.6473 257.99414 176.00977 L 256.90039 173.05078 C 256.745 172.58542 256.73809 172.14195 256.87891 171.71875 C 257.01796 171.29026 257.35246 170.95723 257.88477 170.7207 C 257.97459 170.54964 257.93221 170.42009 257.75586 170.33203 C 256.62235 170.56359 255.88616 170.12168 255.54883 169.00586 L 254.72266 166.21484 C 254.42769 165.19068 254.01498 164.55785 253.48242 164.31836 C 253.2179 164.19509 252.90836 164.13874 252.55664 164.15039 z M 248.05273 165.65625 C 247.70102 165.6679 247.30415 165.74601 246.86523 165.89258 C 246.82119 165.95431 246.81568 166.0312 246.8457 166.12109 C 246.87924 166.20394 246.92909 166.2566 246.99609 166.28125 C 247.37155 166.15588 247.75511 166.25103 248.14844 166.56641 C 248.54705 166.88001 248.83992 167.36826 249.02539 168.0293 L 249.69727 170.49219 C 249.87567 171.13207 250.1711 171.59294 250.58203 171.87305 C 250.9912 172.14786 251.53624 172.31037 252.2168 172.35938 L 252.23828 172.42188 C 251.6937 172.79769 251.33214 173.19535 251.1543 173.61328 C 250.97997 174.02416 251.02135 174.5597 251.27734 175.2207 L 252.3125 177.87305 C 252.46786 178.26788 252.55486 178.61165 252.57617 178.9043 C 252.60277 179.19518 252.56214 179.43706 252.45117 179.63281 C 252.34726 179.83209 252.24244 179.98596 252.13672 180.0918 C 252.03805 180.20116 251.89871 180.31342 251.7207 180.43164 C 251.68019 180.50395 251.67254 180.57831 251.69727 180.65234 C 251.72904 180.7299 251.78102 180.78509 251.85156 180.82031 C 253.54906 180.25348 254.09387 179.15316 253.48828 177.51562 L 252.39453 174.55664 C 252.23914 174.09128 252.23223 173.64586 252.37305 173.22266 C 252.5121 172.79417 252.84855 172.46309 253.38086 172.22656 C 253.47068 172.0555 253.42635 171.92595 253.25 171.83789 C 252.1165 172.06945 251.38225 171.62558 251.04492 170.50977 L 250.2168 167.71875 C 249.92183 166.69459 249.50912 166.06176 248.97656 165.82227 C 248.71204 165.69899 248.40445 165.6446 248.05273 165.65625 z M 260.85156 165.8457 L 262.79688 166.3418 L 262.00391 168.20312 L 260.04297 167.70312 L 260.85156 165.8457 z M 277.48438 165.94336 L 276.24023 168.82812 L 274.64258 168.41992 L 274.27148 169.26562 L 275.87695 169.67578 L 275.06641 171.53125 L 273.46289 171.12305 L 273.11914 171.95898 L 274.7168 172.36523 L 273.47461 175.24219 L 274.04883 175.38867 L 275.31641 172.51953 L 277.25195 173.01172 L 276.02734 175.89258 L 276.60938 176.04102 L 277.86914 173.16992 L 279.44922 173.57227 L 279.79883 172.73828 L 278.1875 172.32617 L 279.01367 170.47461 L 280.60938 170.88086 L 280.96484 170.03125 L 279.35938 169.62305 L 280.60352 166.73828 L 280.01953 166.58984 L 278.79297 169.47852 L 276.81445 168.97461 L 278.08398 166.0957 L 277.48438 165.94336 z M 268.66406 167.83789 L 270.60938 168.33203 L 269.81641 170.19336 L 267.85547 169.69336 L 268.66406 167.83789 z M 178.95117 167.96484 L 178.37695 168.59375 L 181.04883 173.72852 L 175.70898 171.51367 L 175.12891 172.15039 L 181.69141 174.87109 L 182.24414 174.26758 L 178.95117 167.96484 z M 276.47656 169.82812 L 278.42188 170.32422 L 277.62695 172.18359 L 275.66602 171.68359 L 276.47656 169.82812 z M 242.12109 172.00781 C 240.33146 172.00781 239.46573 172.87997 239.52148 174.625 L 239.62109 177.77734 C 239.62109 178.26796 239.48636 178.69425 239.21875 179.05664 C 238.95114 179.41903 238.52904 179.6298 237.94922 179.68555 C 237.80984 179.81935 237.80984 179.95437 237.94922 180.09375 C 239.09771 180.22755 239.65454 180.87775 239.62109 182.04297 L 239.52148 184.95312 C 239.47688 186.01799 239.66613 186.74869 240.08984 187.14453 C 240.51913 187.54594 241.19561 187.74609 242.12109 187.74609 C 242.17127 187.70149 242.19503 187.63189 242.18945 187.53711 C 242.18945 187.44791 242.1657 187.38054 242.12109 187.33594 C 241.72526 187.33594 241.39037 187.12489 241.11719 186.70117 C 240.844 186.28303 240.72436 185.73067 240.75781 185.04492 L 240.89258 182.48633 C 240.92603 181.82846 240.79129 181.30209 240.49023 180.90625 C 240.18917 180.51041 239.72375 180.18 239.09375 179.91797 L 239.09375 179.85156 C 239.7349 179.66758 240.20452 179.40873 240.5 179.07422 C 240.79548 178.73413 240.92603 178.21 240.89258 177.50195 L 240.75781 174.66797 C 240.73551 174.24425 240.75927 173.8898 240.82617 173.60547 C 240.89307 173.31556 241.00629 173.09389 241.16797 172.94336 C 241.33522 172.78725 241.4831 172.67628 241.61133 172.60938 C 241.74513 172.5369 241.91481 172.47372 242.12109 172.41797 C 242.17127 172.36222 242.19503 172.29485 242.18945 172.2168 C 242.18945 172.13317 242.1657 172.06356 242.12109 172.00781 z M 204.13672 179.2207 C 203.93526 179.21375 203.71871 179.21937 203.48828 179.24023 C 203.43123 179.29018 203.40747 179.36264 203.41602 179.45703 C 203.42961 179.54537 203.46584 179.60904 203.52539 179.64844 C 203.91962 179.61275 204.27175 179.79405 204.58203 180.19141 C 204.89786 180.58826 205.06914 181.13044 205.09766 181.81641 L 205.1875 184.36914 C 205.21401 185.0329 205.39494 185.54698 205.73047 185.91406 C 206.06549 186.27559 206.55793 186.55951 207.20898 186.76367 L 207.21484 186.83008 C 206.59845 187.07062 206.15589 187.37439 205.88672 187.74023 C 205.6226 188.10003 205.53956 188.62988 205.63672 189.33203 L 206.03516 192.15234 C 206.09557 192.57232 206.10123 192.92709 206.05469 193.2168 C 206.0137 193.50601 205.91667 193.73149 205.76367 193.89648 C 205.61673 194.06653 205.48074 194.19279 205.35352 194.27148 C 205.23234 194.35523 205.07151 194.43369 204.87109 194.50781 C 204.81504 194.56887 204.78984 194.63711 204.79688 194.71484 C 204.80997 194.79763 204.84765 194.86552 204.9082 194.91602 C 206.69055 194.75465 207.47459 193.80712 207.26172 192.07422 L 206.87695 188.94336 C 206.83271 188.45474 206.92776 188.02011 207.16211 187.64062 C 207.39595 187.25558 207.79866 187.01015 208.37109 186.90234 C 208.49784 186.75652 208.48536 186.62038 208.33398 186.49414 C 207.17761 186.45889 206.56394 185.8588 206.49219 184.69531 L 206.33008 181.78711 C 206.27848 180.72256 206.02183 180.01372 205.55859 179.6582 C 205.21496 179.38702 204.74109 179.24156 204.13672 179.2207 z M 202.89453 179.27734 C 201.11219 179.43871 200.32814 180.38624 200.54102 182.11914 L 200.92578 185.25 C 200.97002 185.73862 200.87447 186.17551 200.64062 186.56055 C 200.40678 186.94559 200.00407 187.19102 199.43164 187.29883 C 199.30489 187.44466 199.31737 187.58079 199.46875 187.70703 C 200.62462 187.73673 201.2388 188.33456 201.31055 189.49805 L 201.47266 192.4043 C 201.52425 193.46884 201.77865 194.17914 202.23633 194.53516 C 202.70006 194.89623 203.39274 195.03657 204.31445 194.95312 C 204.3604 194.90418 204.37543 194.83217 204.36133 194.73828 C 204.35328 194.64944 204.32579 194.58532 204.27734 194.54492 C 203.88312 194.58061 203.53098 194.39931 203.2207 194.00195 C 202.91093 193.61015 202.74141 193.07074 202.71289 192.38477 L 202.61523 189.82422 C 202.58923 189.16601 202.40974 188.65419 202.07422 188.28711 C 201.73869 187.92003 201.24481 187.63385 200.59375 187.42969 L 200.58789 187.36328 C 201.20984 187.12224 201.6519 186.82073 201.91602 186.46094 C 202.17963 186.09559 202.26317 185.56348 202.16602 184.86133 L 201.77734 182.04883 C 201.71693 181.62885 201.70706 181.27358 201.74805 180.98438 C 201.78854 180.68961 201.8838 180.46137 202.03125 180.29688 C 202.18375 180.12632 202.31973 180.00202 202.44141 179.92383 C 202.56813 179.83958 202.73123 179.75967 202.93164 179.68555 C 202.97659 179.6255 202.99306 179.5577 202.98047 179.48047 C 202.97293 179.39718 202.94398 179.32885 202.89453 179.27734 z M 297.94141 179.93164 C 297.47309 180.12677 297.1642 180.43566 297.01367 180.85938 L 297.01367 180.92578 C 297.09172 181.21012 297.19823 181.42312 297.33203 181.5625 C 297.46584 181.70188 297.66822 181.79776 297.94141 181.85352 L 298.00977 181.85352 C 298.46136 181.73644 298.76605 181.42755 298.92773 180.92578 L 298.92773 180.85938 C 298.78278 180.41336 298.47808 180.10447 298.00977 179.93164 L 297.94141 179.93164 z M 271.95703 182.58398 L 271.88086 183.41602 L 278.61719 184.03906 L 278.69336 183.20703 L 271.95703 182.58398 z M 280.95117 183.41602 L 280.87305 184.24805 L 287.61133 184.87109 L 287.6875 184.03906 L 280.95117 183.41602 z M 297.94141 184.4375 C 297.47309 184.62706 297.1642 184.93371 297.01367 185.35742 L 297.01367 185.43359 C 297.09172 185.71793 297.19823 185.92898 297.33203 186.06836 C 297.46584 186.20216 297.66822 186.29776 297.94141 186.35352 L 298.00977 186.35352 C 298.46136 186.24201 298.76605 185.93536 298.92773 185.43359 L 298.92773 185.35742 C 298.78278 184.91698 298.47808 184.61033 298.00977 184.4375 L 297.94141 184.4375 z M 271.75977 184.7168 L 271.68359 185.54883 L 278.41992 186.17188 L 278.49805 185.33984 L 271.75977 184.7168 z M 280.75391 185.54688 L 280.67773 186.38086 L 287.41406 187.00391 L 287.49023 186.16992 L 280.75391 185.54688 z M 218.9082 185.61523 L 218.9082 201.54688 L 219.74609 201.54688 L 219.74609 185.61523 L 218.9082 185.61523 z M 252.04492 185.98633 L 250.90234 189.48438 L 251.37891 189.64062 C 251.61175 189.07153 251.80569 188.64687 251.96094 188.36914 C 252.11792 188.08611 252.30068 187.885 252.50977 187.76562 C 252.72059 187.64095 252.92327 187.59425 253.11914 187.62305 C 253.31144 187.64482 253.60393 187.71954 253.99609 187.84766 L 263.94141 191.0957 C 264.33357 191.22382 264.61799 191.34059 264.79492 191.44531 C 264.97359 191.54474 265.10545 191.7061 265.19141 191.92773 C 265.28439 192.1458 265.30981 192.40801 265.26758 192.7168 C 265.23065 193.02732 265.13806 193.48384 264.98828 194.08594 L 265.47266 194.24414 L 266.61523 190.74609 L 252.04492 185.98633 z M 276.77539 190.25195 L 270.09375 192.66016 L 270.09375 193.48828 L 276.77539 195.91211 L 276.77539 195.06055 L 271.34766 193.07812 L 276.77539 191.10352 L 276.77539 190.25195 z M 250.51758 190.66016 L 249.37109 194.16602 L 263.94336 198.92773 L 265.08789 195.42188 L 264.61914 195.26758 C 264.38457 195.84198 264.18572 196.26948 264.02344 196.55078 C 263.86819 196.82851 263.68543 197.02962 263.47461 197.1543 C 263.27082 197.2754 263.07087 197.32177 262.875 197.29297 C 262.67913 197.26417 262.38631 197.18671 261.99414 197.05859 L 252.04883 193.80859 C 251.65666 193.68047 251.37454 193.5684 251.20117 193.4707 C 251.02251 193.37128 250.88595 193.2122 250.79297 192.99414 C 250.70172 192.77078 250.67652 192.5041 250.71875 192.19531 C 250.76271 191.88122 250.85998 191.42437 251.00977 190.82227 L 250.51758 190.66016 z M 222.26172 192.12891 L 222.26172 192.9668 L 229.02734 192.9668 L 229.02734 192.12891 L 222.26172 192.12891 z M 345.97852 193.00781 L 345.21094 193.34375 L 351.60742 207.93359 L 352.37305 207.59961 L 345.97852 193.00781 z M 343.57422 193.89648 C 341.9351 194.61488 341.49063 195.762 342.24219 197.33789 L 343.59961 200.18555 C 343.79655 200.6349 343.84573 201.0802 343.74609 201.51953 C 343.64646 201.95886 343.34266 202.3197 342.83398 202.60352 C 342.76004 202.78202 342.81444 202.90681 342.99805 202.97852 C 344.10365 202.64004 344.8754 203.01116 345.3125 204.0918 L 346.38867 206.79688 C 346.77528 207.79008 347.24209 208.38371 347.78906 208.57617 C 348.34338 208.7715 349.04298 208.68401 349.89062 208.3125 C 349.91868 208.25151 349.91229 208.17832 349.86914 208.09375 C 349.83333 208.01205 349.78532 207.96045 349.72656 207.9375 C 349.36402 208.0964 348.97303 208.03623 348.55273 207.75781 C 348.13468 207.4845 347.80323 207.02627 347.55859 206.38477 L 346.6543 203.98828 C 346.42085 203.37231 346.08698 202.94287 345.65234 202.70117 C 345.21771 202.45948 344.65876 202.34452 343.97656 202.35742 L 343.94922 202.29688 C 344.46259 201.871 344.78747 201.44452 344.92383 201.01953 C 345.05794 200.58943 344.96721 200.05694 344.65234 199.42188 L 343.39258 196.87891 C 343.20207 196.49978 343.08021 196.16814 343.02734 195.88086 C 342.97224 195.58848 342.98852 195.33949 343.07617 195.13672 C 343.1667 194.9266 343.25707 194.76509 343.34766 194.65234 C 343.44111 194.53225 343.57173 194.40535 343.73828 194.27148 C 343.76186 194.20028 343.75519 194.13175 343.71875 194.0625 C 343.68518 193.98591 343.63745 193.92964 343.57422 193.89648 z M 222.26172 194.27148 L 222.26172 195.10742 L 229.02734 195.10742 L 229.02734 194.27148 L 222.26172 194.27148 z M 248.5957 196.54297 L 247.45117 200.04883 L 262.02148 204.80859 L 263.16602 201.30273 L 262.69727 201.15039 C 262.46269 201.72479 262.26384 202.1523 262.10156 202.43359 C 261.94631 202.71132 261.76356 202.91243 261.55273 203.03711 C 261.34894 203.15822 261.149 203.20458 260.95312 203.17578 C 260.75725 203.14698 260.46443 203.06953 260.07227 202.94141 L 250.12695 199.69141 C 249.73479 199.56329 249.45266 199.45121 249.2793 199.35352 C 249.10063 199.25409 248.96408 199.09502 248.87109 198.87695 C 248.77984 198.65359 248.75465 198.38691 248.79688 198.07812 C 248.84083 197.76404 248.93811 197.30718 249.08789 196.70508 L 248.5957 196.54297 z M 281.76367 197.71484 C 281.61872 197.71484 281.49684 197.77997 281.39648 197.9082 C 281.30171 198.03643 281.25391 198.19297 281.25391 198.37695 C 281.25391 198.52748 281.31261 198.77124 281.42969 199.11133 C 281.55234 199.44584 281.62418 199.72845 281.64648 199.95703 C 281.4402 199.8734 281.16626 199.70596 280.82617 199.45508 C 280.49166 199.20419 280.21743 199.07812 280 199.07812 C 279.80487 199.07812 279.66147 199.13235 279.57227 199.23828 C 279.48306 199.33863 279.43945 199.45828 279.43945 199.59766 C 279.43388 200.02137 279.89288 200.23242 280.81836 200.23242 C 281.10827 200.23242 281.35174 200.25423 281.54688 200.29883 C 281.4075 200.46051 281.20539 200.62571 280.94336 200.79297 C 280.68133 200.95465 280.4767 201.11119 280.32617 201.26172 C 280.17564 201.40667 280.09961 201.58726 280.09961 201.80469 C 280.09961 201.93292 280.14322 202.04389 280.23242 202.13867 C 280.3272 202.23345 280.45103 202.28125 280.60156 202.28125 C 280.79669 202.28125 280.95547 202.20074 281.07812 202.03906 C 281.20635 201.87181 281.3369 201.61296 281.4707 201.26172 C 281.61008 200.90491 281.71882 200.65053 281.79688 200.5 C 281.89165 200.65053 282.00263 200.89624 282.13086 201.23633 C 282.26466 201.57084 282.39716 201.82969 282.52539 202.01367 C 282.6592 202.19208 282.82245 202.28125 283.01758 202.28125 C 283.14023 202.28125 283.25316 202.23764 283.35352 202.14844 C 283.45944 202.05923 283.51172 201.93959 283.51172 201.78906 C 283.51172 201.58278 283.43988 201.40891 283.29492 201.26953 C 283.15554 201.12458 282.95344 200.9658 282.69141 200.79297 C 282.42937 200.61456 282.22922 200.44936 282.08984 200.29883 C 282.3686 200.25423 282.68392 200.23242 283.03516 200.23242 C 283.82126 200.23242 284.21484 200.02137 284.21484 199.59766 C 284.21484 199.48058 284.16704 199.36541 284.07227 199.25391 C 283.98306 199.13683 283.83519 199.07812 283.62891 199.07812 C 283.42262 199.07812 283.15511 199.20643 282.82617 199.46289 C 282.49724 199.71377 282.22329 199.88345 282.00586 199.97266 C 282.01701 199.81098 282.07347 199.53675 282.17383 199.14648 C 282.27976 198.75065 282.33203 198.47027 282.33203 198.30859 C 282.33203 197.91276 282.14278 197.71484 281.76367 197.71484 z M 288.46094 203.48047 C 287.99262 203.6756 287.68373 203.98449 287.5332 204.4082 L 287.5332 204.47656 C 287.61126 204.7609 287.7158 204.97195 287.84961 205.11133 C 287.98341 205.25071 288.18775 205.34855 288.46094 205.4043 L 288.52734 205.4043 C 288.97893 205.28722 289.28559 204.97833 289.44727 204.47656 L 289.44727 204.4082 C 289.30231 203.96219 288.99566 203.6533 288.52734 203.48047 L 288.46094 203.48047 z M 292.24023 203.48047 C 291.77192 203.6756 291.46303 203.98449 291.3125 204.4082 L 291.3125 204.47656 C 291.39055 204.7609 291.49705 204.97195 291.63086 205.11133 C 291.76466 205.25071 291.96705 205.34855 292.24023 205.4043 L 292.30859 205.4043 C 292.76018 205.28722 293.06684 204.97833 293.22852 204.47656 L 293.22852 204.4082 C 293.08356 203.96219 292.77691 203.6533 292.30859 203.48047 L 292.24023 203.48047 z M 296.02148 203.48047 C 295.55317 203.6756 295.24233 203.98449 295.0918 204.4082 L 295.0918 204.47656 C 295.16985 204.7609 295.27635 204.97195 295.41016 205.11133 C 295.54396 205.25071 295.7483 205.34855 296.02148 205.4043 L 296.08789 205.4043 C 296.53948 205.28722 296.84613 204.97833 297.00781 204.47656 L 297.00781 204.4082 C 296.86286 203.96219 296.55621 203.6533 296.08789 203.48047 L 296.02148 203.48047 z M 299.80078 203.48047 C 299.33247 203.6756 299.02358 203.98449 298.87305 204.4082 L 298.87305 204.47656 C 298.9511 204.7609 299.05565 204.97195 299.18945 205.11133 C 299.32326 205.25071 299.5276 205.34855 299.80078 205.4043 L 299.86719 205.4043 C 300.31878 205.28722 300.62543 204.97833 300.78711 204.47656 L 300.78711 204.4082 C 300.64215 203.96219 300.3355 203.6533 299.86719 203.48047 L 299.80078 203.48047 z M 288.46094 207.98828 C 287.99262 208.17784 287.68373 208.48449 287.5332 208.9082 L 287.5332 208.98242 C 287.61126 209.26676 287.7158 209.47976 287.84961 209.61914 C 287.98341 209.75295 288.18775 209.84659 288.46094 209.90234 L 288.52734 209.90234 C 288.97893 209.79084 289.28559 209.48419 289.44727 208.98242 L 289.44727 208.9082 C 289.30231 208.46776 288.99566 208.16111 288.52734 207.98828 L 288.46094 207.98828 z M 292.24023 207.98828 C 291.77192 208.17784 291.46303 208.48449 291.3125 208.9082 L 291.3125 208.98242 C 291.39055 209.26676 291.49705 209.47976 291.63086 209.61914 C 291.76466 209.75295 291.96705 209.84659 292.24023 209.90234 L 292.30859 209.90234 C 292.76018 209.79084 293.06684 209.48419 293.22852 208.98242 L 293.22852 208.9082 C 293.08356 208.46776 292.77691 208.16111 292.30859 207.98828 L 292.24023 207.98828 z M 296.02148 207.98828 C 295.55317 208.17784 295.24233 208.48449 295.0918 208.9082 L 295.0918 208.98242 C 295.16985 209.26676 295.27635 209.47976 295.41016 209.61914 C 295.54396 209.75295 295.7483 209.84659 296.02148 209.90234 L 296.08789 209.90234 C 296.53948 209.79084 296.84613 209.48419 297.00781 208.98242 L 297.00781 208.9082 C 296.86286 208.46776 296.55621 208.16111 296.08789 207.98828 L 296.02148 207.98828 z M 299.80078 207.98828 C 299.33247 208.17784 299.02358 208.48449 298.87305 208.9082 L 298.87305 208.98242 C 298.9511 209.26676 299.05565 209.47976 299.18945 209.61914 C 299.32326 209.75295 299.5276 209.84659 299.80078 209.90234 L 299.86719 209.90234 C 300.31878 209.79084 300.62543 209.48419 300.78711 208.98242 L 300.78711 208.9082 C 300.64215 208.46776 300.3355 208.16111 299.86719 207.98828 L 299.80078 207.98828 z M 238.5625 213.75195 C 238.45789 213.7353 238.34916 213.79079 238.23828 213.91992 C 238.12828 214.04355 238.06292 214.17485 238.04102 214.3125 C 238.00484 214.50433 238.07151 214.61346 238.24219 214.64062 L 242.06641 215.25 C 242.16551 215.26577 242.27675 215.20284 242.40039 215.06445 C 242.52954 214.92694 242.60337 214.81004 242.61914 214.71094 C 242.65707 214.5081 242.59522 214.3926 242.43555 214.36719 L 238.5625 213.75195 z M 244.17773 214.64453 C 244.07312 214.62788 243.96635 214.68532 243.85547 214.81445 C 243.74547 214.93808 243.67816 215.06743 243.65625 215.20508 C 243.62007 215.39691 243.68869 215.50799 243.85938 215.53516 L 247.68359 216.14258 C 247.7827 216.15835 247.89393 216.09737 248.01758 215.95898 C 248.14673 215.82147 248.2186 215.70262 248.23438 215.60352 C 248.27231 215.40067 248.21045 215.28713 248.05078 215.26172 L 244.17773 214.64453 z M 235.04102 215.28906 L 231.40039 215.81641 L 231.4707 216.3125 C 232.08404 216.26888 232.54941 216.25547 232.86719 216.27148 C 233.19048 216.2867 233.45264 216.36161 233.65234 216.49609 C 233.85757 216.62978 233.9917 216.79018 234.05273 216.97852 C 234.11848 217.16054 234.17924 217.45692 234.23828 217.86523 L 235.73633 228.21875 C 235.79537 228.62707 235.8162 228.93365 235.80078 229.13867 C 235.79088 229.3429 235.70742 229.53172 235.54688 229.70703 C 235.39264 229.88706 235.16659 230.0279 234.87109 230.12695 C 234.57639 230.23153 234.12563 230.34972 233.51953 230.48242 L 233.59375 230.98828 L 237.23438 230.46094 L 235.04102 215.28906 z M 249.79492 215.53906 C 249.69031 215.52241 249.58158 215.5779 249.4707 215.70703 C 249.3607 215.83066 249.29535 215.96196 249.27344 216.09961 C 249.23726 216.29144 249.30393 216.40057 249.47461 216.42773 L 253.29883 217.03711 C 253.39793 217.05288 253.50917 216.99191 253.63281 216.85352 C 253.76196 216.716 253.83383 216.59715 253.84961 216.49805 C 253.88754 216.29521 253.82764 216.18166 253.66797 216.15625 L 249.79492 215.53906 z M 228.91602 216.17578 L 225.27539 216.70117 L 225.34766 217.19922 C 225.961 217.1556 226.42637 217.14023 226.74414 217.15625 C 227.06743 217.17147 227.32764 217.24637 227.52734 217.38086 C 227.73257 217.51455 227.8667 217.6769 227.92773 217.86523 C 227.99348 218.04726 228.0562 218.34168 228.11523 218.75 L 229.61133 229.10352 C 229.67037 229.51183 229.69316 229.81841 229.67773 230.02344 C 229.66783 230.22766 229.58242 230.41844 229.42188 230.59375 C 229.26764 230.77378 229.04159 230.91266 228.74609 231.01172 C 228.45139 231.11629 228.00258 231.23449 227.39648 231.36719 L 227.46875 231.87305 L 231.10938 231.3457 L 228.91602 216.17578 z M 224.05078 216.87891 L 220.40039 217.40625 L 222.59375 232.57812 L 226.24414 232.05078 L 226.17383 231.5625 C 225.55497 231.60692 225.0819 231.61839 224.75781 231.59766 C 224.44004 231.58164 224.17983 231.50674 223.97461 231.37305 C 223.7757 231.24408 223.64501 231.08482 223.58398 230.89648 C 223.52295 230.70815 223.46334 230.41027 223.4043 230.00195 L 221.90625 219.64844 C 221.84721 219.24012 221.82328 218.93504 221.83398 218.73633 C 221.84389 218.5321 221.92585 218.34018 222.08008 218.16016 C 222.23983 217.97933 222.46817 217.83929 222.76367 217.74023 C 223.06469 217.64038 223.51891 217.52528 224.125 217.39258 L 224.05078 216.87891 z M 217.92578 217.76367 L 214.27539 218.29297 L 216.46875 233.46289 L 220.11914 232.93555 L 220.04883 232.44727 C 219.42997 232.49168 218.9569 232.50316 218.63281 232.48242 C 218.31504 232.4664 218.05483 232.3915 217.84961 232.25781 C 217.6507 232.12884 217.52001 231.97154 217.45898 231.7832 C 217.39795 231.59487 217.33834 231.29504 217.2793 230.88672 L 215.78125 220.5332 C 215.72221 220.12489 215.69828 219.82175 215.70898 219.62305 C 215.71889 219.41882 215.80085 219.2269 215.95508 219.04688 C 216.11483 218.86605 216.34317 218.72601 216.63867 218.62695 C 216.93969 218.5271 217.39391 218.41004 218 218.27734 L 217.92578 217.76367 z M 278.11133 223.07031 C 278.05058 223.06868 277.98023 223.08383 277.90039 223.11328 C 277.74415 223.16781 277.62319 223.24976 277.53711 223.35938 C 277.41221 223.5094 277.41876 223.6374 277.55469 223.74414 L 280.59961 226.13477 C 280.67854 226.19674 280.80513 226.19751 280.98047 226.13672 C 281.16019 226.07937 281.28177 226.01057 281.34375 225.93164 C 281.47554 225.77285 281.47677 225.64478 281.34961 225.54492 L 278.26562 223.12305 C 278.22397 223.09034 278.17208 223.07194 278.11133 223.07031 z M 291.83789 224.89062 L 281.99805 237.41992 L 282.65625 237.9375 L 292.49609 225.40625 L 291.83789 224.89062 z M 282.58398 226.58203 C 282.52324 226.5804 282.45289 226.59554 282.37305 226.625 C 282.21681 226.67953 282.09585 226.76147 282.00977 226.87109 C 281.88487 227.02112 281.89142 227.14912 282.02734 227.25586 L 285.07227 229.64648 C 285.15119 229.70846 285.27779 229.70923 285.45312 229.64844 C 285.63285 229.59109 285.75443 229.52424 285.81641 229.44531 C 285.94819 229.28652 285.94942 229.1565 285.82227 229.05664 L 282.73828 226.63477 C 282.69663 226.60205 282.64473 226.58366 282.58398 226.58203 z M 275.37891 250.45703 L 270.06445 265.47656 L 270.85352 265.75586 L 276.16797 250.73633 L 275.37891 250.45703 z M 279.78906 256.87109 L 278.79297 259.68555 L 276.01758 258.70312 L 275.74023 259.49219 L 278.51367 260.47461 L 277.52148 263.28125 L 278.34961 263.57422 L 279.3418 260.76758 L 282.11719 261.74805 L 282.39648 260.96094 L 279.62109 259.97852 L 280.61719 257.16406 L 279.78906 256.87109 z M 322.66602 272.54883 C 322.52106 272.54883 322.39918 272.61201 322.29883 272.74023 C 322.20405 272.86846 322.15625 273.025 322.15625 273.20898 C 322.15625 273.35951 322.21495 273.60523 322.33203 273.94531 C 322.45469 274.27982 322.52653 274.56048 322.54883 274.78906 C 322.34255 274.70543 322.07056 274.53799 321.73047 274.28711 C 321.39596 274.03623 321.11978 273.91211 320.90234 273.91211 C 320.70721 273.91211 320.56381 273.96438 320.47461 274.07031 C 320.38541 274.17067 320.3418 274.29031 320.3418 274.42969 C 320.33622 274.8534 320.79522 275.06641 321.7207 275.06641 C 322.01061 275.06641 322.25409 275.08821 322.44922 275.13281 C 322.30984 275.29449 322.10774 275.45774 321.8457 275.625 C 321.58367 275.78668 321.37905 275.94322 321.22852 276.09375 C 321.07799 276.2387 321.00195 276.42124 321.00195 276.63867 C 321.00195 276.7669 321.04752 276.87788 321.13672 276.97266 C 321.2315 277.06743 321.35338 277.11523 321.50391 277.11523 C 321.69904 277.11523 321.85781 277.03277 321.98047 276.87109 C 322.1087 276.70384 322.23924 276.44499 322.37305 276.09375 C 322.51243 275.73694 322.62117 275.48451 322.69922 275.33398 C 322.794 275.48451 322.90497 275.72827 323.0332 276.06836 C 323.16701 276.40287 323.29951 276.66368 323.42773 276.84766 C 323.56154 277.02606 323.72479 277.11523 323.91992 277.11523 C 324.04258 277.11523 324.15551 277.06967 324.25586 276.98047 C 324.36179 276.89127 324.41406 276.77162 324.41406 276.62109 C 324.41406 276.41481 324.34222 276.2429 324.19727 276.10352 C 324.05789 275.95856 323.85578 275.79783 323.59375 275.625 C 323.33172 275.44659 323.13157 275.28334 322.99219 275.13281 C 323.27095 275.08821 323.58626 275.06641 323.9375 275.06641 C 324.7236 275.06641 325.11719 274.8534 325.11719 274.42969 C 325.11719 274.31261 325.06939 274.19939 324.97461 274.08789 C 324.88541 273.97081 324.73753 273.91211 324.53125 273.91211 C 324.32497 273.91211 324.05745 274.04042 323.72852 274.29688 C 323.39958 274.54776 323.12564 274.71744 322.9082 274.80664 C 322.91935 274.64496 322.97582 274.36878 323.07617 273.97852 C 323.1821 273.58268 323.23438 273.30426 323.23438 273.14258 C 323.23438 272.74674 323.04513 272.54883 322.66602 272.54883 z M 339.87891 304.1543 L 324.48828 308.27539 L 324.70508 309.08203 L 340.09375 304.96094 L 339.87891 304.1543 z M 340.8125 307.64453 L 325.42383 311.76367 L 325.64062 312.57227 L 341.0293 308.45117 L 340.8125 307.64453 z " transform="matrix(0.26458333,0,0,0.26458333,74.150297,141.34077)" id="text4656"/>
    <flowRoot xml:space="preserve" id="flowRoot4778" style="fill:black;stroke:none;stroke-opacity:1;stroke-width:1px;stroke-linejoin:miter;stroke-linecap:butt;fill-opacity:1;font-family:Sans;font-style:normal;font-weight:normal;font-size:40px;line-height:125%;letter-spacing:0px;word-spacing:0px"><flowRegion id="flowRegion4780"><rect id="rect4782" width="701.04584" height="714.17786" x="466.69046" y="-150.57011"/></flowRegion><flowPara id="flowPara4784"/></flowRoot>  </g>
</svg>